<svg xmlns="http://www.w3.org/2000/svg" width="279" height="167" viewBox="0 0 279 167">
  <g fill="none" fill-rule="evenodd" transform="translate(2 2)">
    <g transform="translate(164.03 87.034)">
      <path fill="#0A6767" d="M15.0178669,3.99070386 L15.0178669,17.1599847 C15.0091949,17.9287001 15.566803,18.6357398 16.1817741,18.6357398 C16.7967453,18.6357398 17.3543767,17.9287001 17.3456814,17.1599847 L17.3456814,3.99070386 C16.9552038,4.05559818 16.5664083,4.09983108 16.1672238,4.09983108 C15.7778055,4.09983108 15.3956566,4.05309553 15.0178669,3.99070386 Z"/>
      <rect width="31.749" height="57.519" x=".307" y="17.851" stroke="#0A6767" stroke-linecap="round" stroke-linejoin="round" stroke-width="2.619"/>
      <path fill="#0A6767" fill-rule="nonzero" d="M7.87248421,26.2089651 L13.6696713,26.2089651 L13.6696713,32.0061464 L7.87248421,32.0061464 L7.87248421,26.2089651 Z M18.6938769,26.2089651 L24.4910582,26.2089651 L24.4910582,32.0061464 L18.6938769,32.0061464 L18.6938769,26.2089651 Z M7.87248421,34.9047342 L13.6696713,34.9047342 L13.6696713,40.7019213 L7.87248421,40.7019213 L7.87248421,34.9047342 Z M18.6938769,34.9047342 L24.4910582,34.9047342 L24.4910582,40.7019213 L18.6938769,40.7019213 L18.6938769,34.9047342 Z M7.87248421,43.6005265 L13.6696713,43.6005265 L13.6696713,49.3977136 L7.87248421,49.3977136 L7.87248421,43.6005265 Z M18.6938769,43.6005265 L24.4910582,43.6005265 L24.4910582,49.3977136 L18.6938769,49.3977136 L18.6938769,43.6005265 Z M7.87248421,52.2962839 L13.6696713,52.2962839 L13.6696713,58.0934652 L7.87248421,58.0934652 L7.87248421,52.2962839 Z M18.6938769,52.2962839 L24.4910582,52.2962839 L24.4910582,58.0934652 L18.6938769,58.0934652 L18.6938769,52.2962839 Z M7.87248421,60.9921112 L13.6696713,60.9921112 L13.6696713,66.7892925 L7.87248421,66.7892925 L7.87248421,60.9921112 Z M18.6938769,60.9921112 L24.4910582,60.9921112 L24.4910582,66.7892925 L18.6938769,66.7892925 L18.6938769,60.9921112 Z"/>
      <circle cx="16.182" cy="2.149" r="2.06" fill="#0A6767" stroke="#0A6767" stroke-linecap="round" stroke-linejoin="round" stroke-width="1.484"/>
    </g>
    <g transform="translate(111.797 87.034)">
      <path fill="#0A6767" d="M15.0178669,3.99070386 L15.0178669,17.1599847 C15.0091949,17.9287001 15.566803,18.6357398 16.1817741,18.6357398 C16.7967453,18.6357398 17.3543767,17.9287001 17.3456814,17.1599847 L17.3456814,3.99070386 C16.9552038,4.05559818 16.5664083,4.09983108 16.1672238,4.09983108 C15.7778055,4.09983108 15.3956566,4.05309553 15.0178669,3.99070386 Z"/>
      <rect width="31.749" height="57.519" x=".307" y="17.851" stroke="#0A6767" stroke-linecap="round" stroke-linejoin="round" stroke-width="2.619"/>
      <path fill="#0A6767" fill-rule="nonzero" d="M7.87248421,26.2089651 L13.6696713,26.2089651 L13.6696713,32.0061464 L7.87248421,32.0061464 L7.87248421,26.2089651 Z M18.6938769,26.2089651 L24.4910582,26.2089651 L24.4910582,32.0061464 L18.6938769,32.0061464 L18.6938769,26.2089651 Z M7.87248421,34.9047342 L13.6696713,34.9047342 L13.6696713,40.7019213 L7.87248421,40.7019213 L7.87248421,34.9047342 Z M18.6938769,34.9047342 L24.4910582,34.9047342 L24.4910582,40.7019213 L18.6938769,40.7019213 L18.6938769,34.9047342 Z M7.87248421,43.6005265 L13.6696713,43.6005265 L13.6696713,49.3977136 L7.87248421,49.3977136 L7.87248421,43.6005265 Z M18.6938769,43.6005265 L24.4910582,43.6005265 L24.4910582,49.3977136 L18.6938769,49.3977136 L18.6938769,43.6005265 Z M7.87248421,52.2962839 L13.6696713,52.2962839 L13.6696713,58.0934652 L7.87248421,58.0934652 L7.87248421,52.2962839 Z M18.6938769,52.2962839 L24.4910582,52.2962839 L24.4910582,58.0934652 L18.6938769,58.0934652 L18.6938769,52.2962839 Z M7.87248421,60.9921112 L13.6696713,60.9921112 L13.6696713,66.7892925 L7.87248421,66.7892925 L7.87248421,60.9921112 Z M18.6938769,60.9921112 L24.4910582,60.9921112 L24.4910582,66.7892925 L18.6938769,66.7892925 L18.6938769,60.9921112 Z"/>
      <circle cx="16.182" cy="2.149" r="2.06" fill="#0A6767" stroke="#0A6767" stroke-linecap="round" stroke-linejoin="round" stroke-width="1.484"/>
    </g>
    <path stroke="#E61E00" stroke-linecap="round" stroke-linejoin="round" stroke-width="3.635" d="M213.448385,7.97502797 C227.813113,-1.73315343 246.621047,-1.73315343 260.985775,7.97502797 M218.739897,15.8847095 C229.899965,8.31594304 244.534124,8.31594304 255.694192,15.8847095 M224.118267,23.794391 C232.034332,18.4433843 242.399828,18.4433843 250.315893,23.794391"/>
    <g transform="translate(216.052 31.296)">
      <path fill="#0A6767" d="M19.7099354,22.6027452 L19.7099354,31.9720251 C19.6991223,32.7407096 20.396208,33.4476958 21.1649698,33.4476958 C21.9337246,33.4476958 22.6308244,32.7407096 22.6199971,31.9720251 L22.6199971,22.6027452 C22.1318517,22.6676243 21.6458058,22.7118742 21.146777,22.7118742 C20.6599516,22.7118742 20.1822192,22.6651106 19.7099354,22.6027452 Z"/>
      <path fill="#E61E00" fill-rule="nonzero" d="M27.5807456,9.89742706 L26.0833151,10.6866918 C25.9214964,10.3499521 25.7221475,10.1134241 25.4863286,9.97851196 C25.2498006,9.84396495 25.023531,9.77633335 24.8086013,9.77633335 C23.796978,9.77633335 23.2906327,10.4437882 23.2906327,11.779407 C23.2906327,12.3863079 23.4191693,12.871406 23.6751681,13.2357614 C23.9311739,13.6001168 24.3086316,13.7824665 24.8086013,13.7824665 C25.4689784,13.7824665 25.9345986,13.458478 26.2040578,12.8112102 L27.6204104,13.51939 C27.3105773,14.0728218 26.8920506,14.5076455 26.3665856,14.8245493 C25.8404115,15.1418112 25.2671438,15.300084 24.6467896,15.300084 C23.6213549,15.300084 22.8023469,14.990258 22.1890704,14.3691946 C21.5743755,13.7488333 21.2677373,12.8855684 21.2677373,11.779751 C21.2677373,10.7004962 21.5811022,9.84431603 22.2088992,9.2101504 C22.8356291,8.57632883 23.6280816,8.25906696 24.5858846,8.25906696 C25.9887699,8.25849119 26.9876491,8.80471889 27.5807456,9.89742706 Z M21.0453647,9.89742706 L19.5273961,10.6866918 C19.3652263,10.3499521 19.1665866,10.1134241 18.9307607,9.97851196 C18.6945837,9.84396495 18.4754059,9.77633335 18.2728692,9.77633335 C17.2615971,9.77633335 16.7552518,10.4437882 16.7552518,11.779407 C16.7552518,12.3863079 16.8834302,12.871406 17.1394361,13.2357614 C17.3958,13.6001168 17.7736017,13.7824665 18.2728692,13.7824665 C18.9339485,13.7824665 19.3992177,13.458478 19.669386,12.8112102 L21.0651935,13.51939 C20.7684767,14.0728218 20.3570207,14.5076455 19.8308466,14.8245493 C19.3053816,15.1418112 18.7250362,15.300084 18.0908636,15.300084 C17.0792403,15.300084 16.2627179,14.990258 15.6423566,14.3691946 C15.0219954,13.7488333 14.7118183,12.8855684 14.7118183,11.779751 C14.7118183,10.7004962 15.0255343,9.84431603 15.6526292,9.2101504 C16.2797171,8.57632883 17.0721555,8.25906696 18.0303167,8.25906696 C19.4335671,8.25849119 20.4381056,8.80471889 21.0453647,9.89742706 Z M21.146777,0.453746817 C18.0039016,0.453746817 15.3568322,1.54757843 13.1986806,3.74574591 C12.1063164,4.8384611 11.2620168,6.07336274 10.6887491,7.4560751 C10.1154884,8.83878044 9.83392413,10.287355 9.83392413,11.7847855 C9.83392413,13.2956763 10.1222151,14.7327917 10.6887491,16.09531 C11.2552901,17.4578354 12.0763204,18.6836371 13.1623019,19.7692606 C14.2482904,20.854898 15.4855443,21.6698967 16.8544382,22.2428133 C18.2236903,22.8167902 19.6496975,23.1158312 21.146777,23.1158312 C22.6438564,23.1158312 24.091139,22.8228077 25.4936802,22.2428133 C26.8969236,21.662819 28.1527565,20.825246 29.2585668,19.7328889 C30.3236592,18.694352 31.131194,17.4871364 31.6775552,16.1316887 C32.2232001,14.7765991 32.4960085,13.3360432 32.4960085,11.7847855 C32.4960085,10.2469881 32.212099,8.78894848 31.6593693,7.41969644 C31.1062816,6.05079547 30.3054734,4.82938223 29.240381,3.76393875 C27.0149418,1.55195988 24.3162078,0.453746817 21.146777,0.453746817 Z M21.1831486,2.49078369 C23.7460296,2.49078369 25.9450256,3.39789816 27.7671538,5.21896609 C28.6431698,6.09639344 29.3099857,7.10034215 29.767819,8.21996393 C30.2263616,9.33958571 30.4589576,10.5302586 30.4589576,11.7847855 C30.4589576,14.3887355 29.5704221,16.5513318 27.8035325,18.2778545 C26.8857382,19.168033 25.8514002,19.8421934 24.7115915,20.3148984 C23.5703714,20.7872454 22.3969575,21.0242228 21.1831486,21.0242228 C19.9555283,21.0242228 18.7921552,20.7983605 17.6728845,20.3330843 C16.5525536,19.8671129 15.5438723,19.1798503 14.6537009,18.2960474 C13.7631713,17.4125956 13.0775447,16.4221072 12.5984712,15.2950496 C12.1190395,14.1694033 11.870954,12.9989525 11.870954,11.7847855 C11.870954,10.5571652 12.1190395,9.38269103 12.5984712,8.2563426 C13.0772007,7.12999417 13.7631713,6.10475611 14.6537009,5.20078027 C16.4209416,3.39351671 18.593354,2.49078369 21.1831486,2.49078369 Z"/>
      <path stroke="#0A6767" stroke-linecap="round" stroke-linejoin="round" stroke-width="2.619" d="M14.8992376 33.2608382C14.2513378 33.2608382 13.7352185 33.7769575 13.7352185 34.4248643L13.7352185 37.753242 28.5947071 37.753242 28.5947071 34.4248643C28.5947071 33.7769575 28.0603949 33.2608382 27.4124952 33.2608382L14.8992376 33.2608382zM6.3418529 37.753242C6.23262561 37.753242 6.14178076 37.8440799 6.14178076 37.9533071L6.14178076 42.663969 36.1881448 42.663969 36.1881448 37.9533071C36.1881448 37.8440799 36.097307 37.753242 35.9880797 37.753242L6.3418529 37.753242z"/>
      <rect width="41.321" height="88.979" x=".505" y="42.669" fill="#FFF" stroke="#0A6767" stroke-linecap="round" stroke-linejoin="round" stroke-width="2.619"/>
      <path fill="#0A6767" fill-rule="nonzero" d="M29.0877746,120.207335 L34.8849586,120.207335 L34.8849586,126.004512 L29.0877746,126.004512 L29.0877746,120.207335 Z M18.2663813,120.207335 L24.0635723,120.207335 L24.0635723,126.004512 L18.2663813,126.004512 L18.2663813,120.207335 Z M7.44497403,120.207335 L13.242158,120.207335 L13.242158,126.004512 L7.44497403,126.004512 L7.44497403,120.207335 Z M29.0877746,111.511542 L34.8849586,111.511542 L34.8849586,117.308719 L29.0877746,117.308719 L29.0877746,111.511542 Z M18.2663813,111.511542 L24.0635723,111.511542 L24.0635723,117.308719 L18.2663813,117.308719 L18.2663813,111.511542 Z M7.44497403,111.511542 L13.242158,111.511542 L13.242158,117.308719 L7.44497403,117.308719 L7.44497403,111.511542 Z M29.0877746,102.815783 L34.8849586,102.815783 L34.8849586,108.612967 L29.0877746,108.612967 L29.0877746,102.815783 Z M18.2663813,102.815783 L24.0635723,102.815783 L24.0635723,108.612967 L18.2663813,108.612967 L18.2663813,102.815783 Z M7.44497403,102.815783 L13.242158,102.815783 L13.242158,108.612967 L7.44497403,108.612967 L7.44497403,102.815783 Z M29.0877746,94.120032 L34.8849586,94.120032 L34.8849586,99.917209 L29.0877746,99.917209 L29.0877746,94.120032 Z M18.2663813,94.120032 L24.0635723,94.120032 L24.0635723,99.917209 L18.2663813,99.917209 L18.2663813,94.120032 Z M7.44497403,94.120032 L13.242158,94.120032 L13.242158,99.917209 L7.44497403,99.917209 L7.44497403,94.120032 Z M29.0877746,85.4242736 L34.8849586,85.4242736 L34.8849586,91.2214576 L29.0877746,91.2214576 L29.0877746,85.4242736 Z M18.2663813,85.4242736 L24.0635723,85.4242736 L24.0635723,91.2214576 L18.2663813,91.2214576 L18.2663813,85.4242736 Z M7.44497403,85.4242736 L13.242158,85.4242736 L13.242158,91.2214576 L7.44497403,91.2214576 L7.44497403,85.4242736 Z M29.0877746,76.728445 L34.8849586,76.728445 L34.8849586,82.525629 L29.0877746,82.525629 L29.0877746,76.728445 Z M18.2663813,76.728445 L24.0635723,76.728445 L24.0635723,82.525629 L18.2663813,82.525629 L18.2663813,76.728445 Z M7.44497403,76.728445 L13.242158,76.728445 L13.242158,82.525629 L7.44497403,82.525629 L7.44497403,76.728445 Z M29.0877746,68.0326866 L34.8849586,68.0326866 L34.8849586,73.8298776 L29.0877746,73.8298776 L29.0877746,68.0326866 Z M18.2663813,68.0326866 L24.0635723,68.0326866 L24.0635723,73.8298776 L18.2663813,73.8298776 L18.2663813,68.0326866 Z M7.44497403,68.0326866 L13.242158,68.0326866 L13.242158,73.8298776 L7.44497403,73.8298776 L7.44497403,68.0326866 Z M29.0877746,59.336893 L34.8849586,59.336893 L34.8849586,65.134084 L29.0877746,65.134084 L29.0877746,59.336893 Z M18.2663813,59.336893 L24.0635723,59.336893 L24.0635723,65.134084 L18.2663813,65.134084 L18.2663813,59.336893 Z M7.44497403,59.336893 L13.242158,59.336893 L13.242158,65.134084 L7.44497403,65.134084 L7.44497403,59.336893 Z M29.0877746,50.6411276 L34.8849586,50.6411276 L34.8849586,56.4383116 L29.0877746,56.4383116 L29.0877746,50.6411276 Z M18.2663813,50.6411276 L24.0635723,50.6411276 L24.0635723,56.4383116 L18.2663813,56.4383116 L18.2663813,50.6411276 Z M7.44497403,50.6411276 L13.242158,50.6411276 L13.242158,56.4383116 L7.44497403,56.4383116 L7.44497403,50.6411276 Z"/>
    </g>
    <g transform="translate(165.142 87.034)">
      <path fill="#E61E00" d="M15.0178669,3.99070386 L15.0178669,17.1599847 C15.0091949,17.9287001 15.566803,18.6357398 16.1817741,18.6357398 C16.7967453,18.6357398 17.3543767,17.9287001 17.3456814,17.1599847 L17.3456814,3.99070386 C16.9552038,4.05559818 16.5664083,4.09983108 16.1672238,4.09983108 C15.7778055,4.09983108 15.3956566,4.05309553 15.0178669,3.99070386 Z"/>
      <rect width="31.749" height="57.519" x=".307" y="17.851" stroke="#E61E00" stroke-linecap="round" stroke-linejoin="round" stroke-width="2.619"/>
      <path fill="#E61E00" fill-rule="nonzero" d="M7.87248421,26.2089651 L13.6696713,26.2089651 L13.6696713,32.0061464 L7.87248421,32.0061464 L7.87248421,26.2089651 Z M18.6938769,26.2089651 L24.4910582,26.2089651 L24.4910582,32.0061464 L18.6938769,32.0061464 L18.6938769,26.2089651 Z M7.87248421,34.9047342 L13.6696713,34.9047342 L13.6696713,40.7019213 L7.87248421,40.7019213 L7.87248421,34.9047342 Z M18.6938769,34.9047342 L24.4910582,34.9047342 L24.4910582,40.7019213 L18.6938769,40.7019213 L18.6938769,34.9047342 Z M7.87248421,43.6005265 L13.6696713,43.6005265 L13.6696713,49.3977136 L7.87248421,49.3977136 L7.87248421,43.6005265 Z M18.6938769,43.6005265 L24.4910582,43.6005265 L24.4910582,49.3977136 L18.6938769,49.3977136 L18.6938769,43.6005265 Z M7.87248421,52.2962839 L13.6696713,52.2962839 L13.6696713,58.0934652 L7.87248421,58.0934652 L7.87248421,52.2962839 Z M18.6938769,52.2962839 L24.4910582,52.2962839 L24.4910582,58.0934652 L18.6938769,58.0934652 L18.6938769,52.2962839 Z M7.87248421,60.9921112 L13.6696713,60.9921112 L13.6696713,66.7892925 L7.87248421,66.7892925 L7.87248421,60.9921112 Z M18.6938769,60.9921112 L24.4910582,60.9921112 L24.4910582,66.7892925 L18.6938769,66.7892925 L18.6938769,60.9921112 Z"/>
      <circle cx="16.182" cy="2.149" r="2.06" fill="#E61E00" stroke="#E61E00" stroke-linecap="round" stroke-linejoin="round" stroke-width="1.484"/>
    </g>
    <g transform="translate(110.686 87.034)">
      <path fill="#E61E00" d="M15.0178669,3.99070386 L15.0178669,17.1599847 C15.0091949,17.9287001 15.566803,18.6357398 16.1817741,18.6357398 C16.7967453,18.6357398 17.3543767,17.9287001 17.3456814,17.1599847 L17.3456814,3.99070386 C16.9552038,4.05559818 16.5664083,4.09983108 16.1672238,4.09983108 C15.7778055,4.09983108 15.3956566,4.05309553 15.0178669,3.99070386 Z"/>
      <rect width="31.749" height="57.519" x=".307" y="17.851" stroke="#E61E00" stroke-linecap="round" stroke-linejoin="round" stroke-width="2.619"/>
      <path fill="#E61E00" fill-rule="nonzero" d="M7.87248421,26.2089651 L13.6696713,26.2089651 L13.6696713,32.0061464 L7.87248421,32.0061464 L7.87248421,26.2089651 Z M18.6938769,26.2089651 L24.4910582,26.2089651 L24.4910582,32.0061464 L18.6938769,32.0061464 L18.6938769,26.2089651 Z M7.87248421,34.9047342 L13.6696713,34.9047342 L13.6696713,40.7019213 L7.87248421,40.7019213 L7.87248421,34.9047342 Z M18.6938769,34.9047342 L24.4910582,34.9047342 L24.4910582,40.7019213 L18.6938769,40.7019213 L18.6938769,34.9047342 Z M7.87248421,43.6005265 L13.6696713,43.6005265 L13.6696713,49.3977136 L7.87248421,49.3977136 L7.87248421,43.6005265 Z M18.6938769,43.6005265 L24.4910582,43.6005265 L24.4910582,49.3977136 L18.6938769,49.3977136 L18.6938769,43.6005265 Z M7.87248421,52.2962839 L13.6696713,52.2962839 L13.6696713,58.0934652 L7.87248421,58.0934652 L7.87248421,52.2962839 Z M18.6938769,52.2962839 L24.4910582,52.2962839 L24.4910582,58.0934652 L18.6938769,58.0934652 L18.6938769,52.2962839 Z M7.87248421,60.9921112 L13.6696713,60.9921112 L13.6696713,66.7892925 L7.87248421,66.7892925 L7.87248421,60.9921112 Z M18.6938769,60.9921112 L24.4910582,60.9921112 L24.4910582,66.7892925 L18.6938769,66.7892925 L18.6938769,60.9921112 Z"/>
      <circle cx="16.182" cy="2.149" r="2.06" fill="#E61E00" stroke="#E61E00" stroke-linecap="round" stroke-linejoin="round" stroke-width="1.484"/>
    </g>
    <path fill="#FFF" stroke="#0A6767" stroke-linecap="round" stroke-linejoin="round" stroke-width="2.723" d="M0.27462,162.89167 L275.46198,162.89167"/>
  </g>
</svg>
