<svg xmlns="http://www.w3.org/2000/svg" width="287" height="211" viewBox="0 0 287 211">
  <g fill="none" fill-rule="evenodd" transform="translate(2 1)">
    <g transform="translate(.06 16.589)">
      <path fill="#0A6767" fill-rule="nonzero" d="M212.431414,121.388382 C211.798396,121.388382 211.152632,121.615618 210.667613,122.100691 C209.697458,123.070846 209.697458,124.641292 210.667613,125.611384 L214.992367,129.936093 C214.997775,129.941501 215.003724,129.946999 215.009132,129.952857 L226.660474,141.587236 L229.374032,144.300794 L229.374032,145.725404 L222.081308,172.199534 L229.374032,172.199534 L229.374032,190.227741 C229.374032,191.731056 230.584277,192.9413 232.087591,192.9413 C233.590842,192.9413 234.801149,191.731056 234.801149,190.227741 L234.801149,172.199534 L238.328769,172.199534 L238.328769,190.227741 C238.328769,191.731056 239.539014,192.9413 241.042319,192.9413 C242.545579,192.9413 243.755877,191.731056 243.755877,190.227741 L243.755877,180.543714 C244.221581,180.981845 244.826378,181.273013 245.468789,181.273013 L263.920968,181.273013 L263.920968,162.820808 L260.342431,162.820808 L260.342431,160.242927 C260.336122,159.439772 259.602279,158.713889 258.799124,158.716548 L258.49385,158.716548 L258.171586,158.173843 L246.876471,138.602329 C246.852045,138.559967 246.818155,138.523913 246.791655,138.483632 C246.760199,138.435321 246.741721,138.376337 246.706839,138.330973 C246.635904,138.238009 246.551079,138.174122 246.469454,138.093533 C246.403656,138.027645 246.338832,137.965075 246.265941,137.907001 C246.214925,137.866892 246.166848,137.824259 246.113281,137.788259 C246.103006,137.781048 246.089937,137.777984 246.079571,137.771494 C245.955836,137.691005 245.824177,137.625126 245.689472,137.567981 C245.617005,137.537606 245.544835,137.50687 245.469023,137.483255 C245.279346,137.422595 245.090479,137.378349 244.892392,137.364504 C244.835788,137.359096 244.779617,137.364288 244.722797,137.364504 L229.42512,137.364504 L214.178369,122.100745 C213.693233,121.615726 213.064505,121.388436 212.431486,121.388436 L212.431414,121.388382 Z M236.565131,125.221285 C233.52572,125.221285 231.070179,127.644648 231.070179,130.631466 C231.070179,133.61822 233.52572,136.041593 236.565131,136.041593 C239.604478,136.041593 242.07701,133.61822 242.07701,130.631466 C242.07701,127.644648 239.604478,125.221285 236.565131,125.221285 Z M243.756049,143.113823 L252.761639,158.716719 L252.897309,158.95415 C252.456356,159.23315 252.135777,159.718015 252.134092,160.24309 L252.134092,162.820961 L248.470794,162.820961 L243.756049,145.72562 L243.756049,143.113823 Z M253.677462,160.24309 L258.799287,160.24309 L258.799287,162.820961 L258.37527,162.820961 L253.677462,162.820961 L253.677462,160.24309 Z M265.464499,162.820961 L265.464499,181.273167 L267.007806,181.273167 C268.348258,181.271364 269.567146,180.052737 269.568696,178.712277 L269.568696,165.381914 C269.566893,164.041444 268.348276,162.822511 267.007806,162.820961 L265.464499,162.820961 Z"/>
      <path stroke="teal" stroke-linecap="round" stroke-linejoin="round" stroke-width="4.997" d="M208.275048,119.078703 L208.275048,88.8607135 C208.275048,86.5533247 207.325182,84.260132 205.693608,82.6285664 C204.062033,80.9969917 201.768849,80.0471223 199.461461,80.0471223 L180.575216,80.0471223 C178.267818,80.0471223 175.974634,79.0972564 174.343069,77.4656845 C172.711494,75.8341125 171.761628,73.5409298 171.761628,71.2335383 L171.761628,66.197207 C171.761628,63.8898137 170.811762,61.5966292 169.180188,59.9650554 C167.548613,58.3334816 165.255429,57.3836149 162.948041,57.3836149 L99.880118,57.3836149 C97.5727293,57.3836149 95.2795456,56.43375 93.6479709,54.8021798 C92.0164053,53.1706096 91.0665304,50.8774287 91.0665304,48.5700381 L91.0665304,30.9428838 C91.0665304,28.6354923 92.0163963,26.3423087 93.6479709,24.7107367 C95.2795456,23.0791647 97.5727293,22.129298 99.880118,22.1292989 L216.974878,22.1292989 C219.282267,22.129298 221.57545,23.0791647 223.207025,24.7107367 C224.8386,26.3423087 225.788465,28.6354923 225.788465,30.9428838 L225.788465,41.0155447 C225.788465,43.3229352 226.738331,45.6161162 228.369906,47.2476872 C230.001481,48.8792574 232.294664,49.8291232 234.602053,49.8291223 L272.374516,49.8291223 C274.681904,49.8291241 276.975088,50.7789927 278.606663,52.4105664 C280.238228,54.0421402 281.188094,56.3353239 281.188094,58.6427153 L281.188094,61.1608531 C281.188094,63.4682445 280.238228,65.7614282 278.606663,67.393001 C276.975088,69.0245748 274.681904,69.9744433 272.374516,69.9744451 L215.715799,69.9744451 C213.408401,69.9744487 211.115218,69.024582 209.483643,67.3930073 C207.852068,65.7614336 206.902202,63.4682472 206.902202,61.1608531 L206.902202,9.53845154 C206.902202,7.23105829 205.952337,4.93787374 204.320762,3.30629997 C202.689196,1.67472621 200.396004,0.724858571 198.088615,0.724859472 L67.1439524,0.724859472 C64.8365636,0.724858571 62.543371,1.67472621 60.9118053,3.30629997 C59.2802306,4.93787374 58.3303648,7.23105829 58.3303648,9.53845154 L58.3303648,48.5700381 C58.3303648,50.8774269 57.380499,53.1706069 55.7489243,54.8021762 C54.1173587,56.4337463 51.824175,57.3836149 49.5167863,57.3836149 L0.700763107,57.3836149"/>
    </g>
    <path stroke="#E61E00" stroke-width=".673" d="M208.90623,133.39622 L208.90623,56.54413 C208.90623,55.15969 207.64659,53.90006 206.26216,53.90006 L78.76818,53.90006 C77.38375,53.90006 76.12412,52.64041 76.12412,51.25598 L76.12412,2.74538 C76.12412,1.36095 77.38375,0.1013 78.76818,0.1013 L183.87803,0.1013 C185.26246,0.1013 186.52211,1.36094 186.52211,2.74538 L186.52211,21.49549 C186.52211,22.87993 185.26246,24.13957 183.87803,24.13957 L128.18017,24.13957 C126.79574,24.13957 125.53611,25.39921 125.53611,26.78365 L125.53611,93.99068 C125.53611,95.37511 124.27646,96.63475 122.89203,96.63475 L24.01433,96.63475 C22.62989,96.63475 21.37026,95.37511 21.37026,93.99068 L21.37026,14.69972 C21.37026,13.31529 22.62989,12.05565 24.01433,12.05565 L46.77084,12.05565 C48.15527,12.05565 49.41491,13.31529 49.41491,14.69972 L49.41491,41.46261 C49.41491,42.84705 50.67456,44.10669 52.05899,44.10669 L66.35759,44.10669 C67.74201,44.10669 69.00165,45.36633 69.00165,46.75076 L69.00165,68.61694 C69.00165,70.00138 70.2613,71.26102 71.64573,71.26102 L195.45199,71.26102 C196.83643,71.26103 198.09608,70.00138 198.09608,68.61694 L198.09608,10.60634 C198.09608,9.22192 199.35572,7.96228 200.74015,7.96228 L283.511,7.96228"/>
    <polyline stroke="#E61E00" stroke-linecap="round" stroke-width="3.331" points="208.621 133.512 208.621 118.05 215.231 111.44 227.116 111.44 233.726 104.83 233.726 30.355 240.336 23.745 253.25 23.745 259.861 30.355 259.861 69.218 266.471 75.828 274.173 75.828 280.783 82.438 280.783 92.811 274.173 99.421 203.53 99.421 196.92 92.811 196.92 87.78 190.31 81.17 127.854 81.17 121.244 74.56 121.244 11.214 114.634 4.603 16.837 4.603 10.227 11.214 10.227 74.56 16.837 81.17 81.237 81.17 84.211 84.228 84.129 87.162 86.959 90.073 107.066 90.073 113.676 83.463 113.676 43.265 120.287 36.655 283.225 36.655"/>
    <path fill="#E61E00" fill-rule="nonzero" d="M213.55226,138.23648 C212.91924,138.23648 212.27347,138.46371 211.78846,138.94879 C210.8183,139.91894 210.8183,141.48938 211.78846,142.45948 L216.11321,146.78419 C216.11921,146.79019 216.12461,146.79499 216.12991,146.80089 L227.78126,158.43527 L230.49481,161.14883 L230.49481,162.57344 L223.20208,189.04756 L230.49481,189.04756 L230.49481,207.07576 C230.49481,208.57908 231.70506,209.78932 233.20837,209.78932 C234.71163,209.78932 235.92193,208.57907 235.92193,207.07576 L235.92193,189.04756 L239.44955,189.04756 L239.44955,207.07576 C239.44955,208.57908 240.65979,209.78932 242.1631,209.78932 C243.66636,209.78932 244.87665,208.57908 244.87665,207.07576 L244.87665,197.39173 C245.34236,197.82987 245.94723,198.13041 246.58956,198.12103 L265.04175,198.12103 L265.04175,179.66883 L261.4632,179.66883 L261.4632,177.09096 C261.4532,176.28781 260.72305,175.56191 259.91983,175.56458 L259.61463,175.56458 L259.29238,175.02188 L247.99724,155.45036 C247.97294,155.40806 247.93894,155.37196 247.91244,155.33166 C247.88104,155.28336 247.86254,155.22437 247.82764,155.179 C247.75674,155.086 247.67188,155.02216 247.59027,154.94155 C247.52447,154.87575 247.45963,154.81311 247.38675,154.75503 C247.33575,154.71483 247.28765,154.67233 247.23408,154.63629 C247.22368,154.62829 247.21068,154.62589 247.20038,154.61959 C247.07665,154.53909 246.94499,154.47322 246.81029,154.41607 C246.73789,154.38567 246.66565,154.35497 246.58983,154.33137 C246.40015,154.27067 246.21129,154.22646 246.01321,154.21262 C245.95661,154.20662 245.90044,154.2124 245.84361,154.21262 L230.54593,154.21262 L215.29918,138.94886 C214.81404,138.46385 214.18531,138.23655 213.5523,138.23655 L213.55226,138.23648 Z M237.68597,142.06938 C234.64657,142.06938 232.19102,144.49274 232.19102,147.47956 C232.19102,150.46631 234.64657,152.88969 237.68597,152.88969 C240.72532,152.88969 243.19785,150.46631 243.19785,147.47956 C243.19785,144.49274 240.72532,142.06938 237.68597,142.06938 Z M244.87688,159.96192 L253.88248,175.56481 L254.01815,175.80224 C253.57719,176.08125 253.25662,176.56611 253.25493,177.09119 L253.25493,179.66906 L249.59164,179.66906 L244.87688,162.57372 L244.87688,159.96192 Z M254.7983,177.09119 L259.92008,177.09119 L259.92008,179.66906 L259.4961,179.66906 L254.7983,179.66906 L254.7983,177.09119 Z M266.58537,179.66906 L266.58537,198.12125 L268.12864,198.12125 C269.46914,198.11925 270.68794,196.90081 270.68944,195.56036 L270.68944,182.23001 C270.68944,180.88953 269.46914,179.67061 268.12864,179.66906 L266.58537,179.66906 Z"/>
  </g>
</svg>
