<svg xmlns="http://www.w3.org/2000/svg" width="234" height="119" viewBox="0 0 234 119">
  <g fill="none" transform="translate(0 -1)">
    <path fill="#0A6767" d="M93.96765,24.32953 C89.1408,24.32953 85.22471,28.17485 85.22471,32.91817 C85.22471,37.66149 89.1408,41.50682 93.96765,41.50682 C98.79448,41.50682 102.71058,37.66149 102.71058,32.91817 C102.71058,28.17485 98.79448,24.32953 93.96765,24.32953 Z M80.85325,43.15255 C80.79395,43.15555 80.73246,43.17275 80.67329,43.17835 C80.60409,43.18535 80.53547,43.19435 80.46758,43.20405 C80.28688,43.23025 80.10173,43.25635 79.92753,43.30691 C79.80476,43.34231 79.68528,43.38861 79.56753,43.43548 C79.47113,43.47418 79.37778,43.51798 79.28463,43.56406 C79.1482,43.63136 79.02616,43.71324 78.89895,43.79549 C78.81115,43.85189 78.72508,43.91203 78.6418,43.97549 C78.53508,44.05749 78.43099,44.14014 78.33323,44.23264 C78.24373,44.31694 78.15787,44.39667 78.07609,44.48977 C77.94031,44.64402 77.82675,44.8033 77.71607,44.97835 C77.69967,45.00435 77.68067,45.02895 77.66417,45.05545 C77.56617,45.21917 77.481,45.3908 77.40703,45.56973 C77.38493,45.62283 77.35023,45.66943 77.32963,45.72402 C77.31963,45.74992 77.31323,45.77522 77.30413,45.80112 C77.27293,45.89212 77.25153,45.98982 77.22683,46.08398 C77.21883,46.11018 77.20793,46.13488 77.20133,46.16108 C77.17923,46.24528 77.16593,46.33189 77.14943,46.41823 C77.13873,46.47883 77.13133,46.53758 77.12383,46.59822 C77.11583,46.64152 77.10243,46.68292 77.09833,46.7268 L75.68398,62.30979 L59.30389,65.98696 C57.17819,66.46498 55.84292,68.56697 56.321,70.69271 C56.799,72.81845 58.9011,74.15361 61.0268,73.6756 L79.20691,69.58699 C79.23321,69.58099 79.25791,69.56769 79.28431,69.56129 C80.20797,69.56829 81.07207,69.2777 81.75291,68.73843 L82.16433,75.4242 L76.68719,72.26132 C73.9891,70.70357 70.58203,71.62037 69.02427,74.31848 C67.4665,77.01658 68.38334,80.42365 71.08143,81.9814 L82.73014,88.7186 L79.90146,90.33861 C77.20338,91.89635 76.28662,95.30343 77.8443,98.00153 C79.40207,100.69963 82.83489,101.61644 85.53298,100.05869 L93.96733,95.19865 L102.37602,100.05869 C105.07411,101.61644 108.50685,100.69963 110.06461,98.00153 C111.62238,95.30343 110.70555,91.89635 108.00745,90.33861 L105.17885,88.7186 L116.85324,81.9814 C119.55133,80.42365 120.46816,77.01658 118.9104,74.31848 C117.35264,71.62037 113.9199,70.70357 111.22181,72.26132 L105.77033,75.4242 L106.20744,68.06985 C106.27984,68.16835 106.35778,68.26179 106.43883,68.35271 C106.57773,68.50974 106.7381,68.65601 106.90177,68.78986 C106.94857,68.82836 107.00702,68.85646 107.05598,68.89271 C107.06598,68.89971 107.07248,68.91151 107.08158,68.91841 C107.14658,68.96591 107.21892,69.00341 107.2873,69.04698 C107.43566,69.14148 107.58986,69.22999 107.75016,69.30412 C107.76016,69.31012 107.76576,69.32512 107.77566,69.32982 C107.91604,69.39282 108.06293,69.43705 108.21285,69.4841 C108.25805,69.4983 108.29535,69.523 108.34147,69.5356 C108.34947,69.5386 108.35957,69.5326 108.36697,69.5356 C108.37497,69.5386 108.38427,69.5326 108.39257,69.5356 C108.43867,69.5476 108.47487,69.5766 108.52118,69.5871 L126.72705,73.67569 C128.85283,74.15371 130.95484,72.81856 131.43276,70.69282 C131.91085,68.56708 130.57558,66.46507 128.44988,65.98706 L112.91836,62.51545 L110.86119,47.24104 C110.86177,47.21444 110.86119,47.19064 110.86119,47.16394 C110.86119,44.98527 109.10561,43.22962 106.92692,43.22962 L104.09832,43.22962 C104.01442,43.22362 103.9261,43.20392 103.84119,43.20392 L84.06677,43.20392 C83.97897,43.20392 83.89628,43.22372 83.80954,43.22962 L81.82956,43.22962 C81.71806,43.20632 81.60682,43.19142 81.49533,43.17812 C81.45913,43.17312 81.42863,43.15582 81.39247,43.15242 C81.29627,43.14342 81.20451,43.15442 81.10956,43.15242 C81.02396,43.15042 80.93733,43.14742 80.85242,43.15242 L80.85325,43.15255 Z M173.47919,44.76338 C172.22473,44.76339 171.08334,45.90479 171.08334,47.15925 L171.08334,51.15237 L166.29156,51.15237 L166.29156,79.90285 L189.45173,79.90285 L189.45173,51.15237 L183.86135,51.15237 L183.86135,47.15925 C183.86135,45.90476 182.71988,44.76334 181.46542,44.76338 L173.47919,44.76338 Z M173.47919,47.15925 L181.46542,47.15925 L181.46542,51.15237 L173.47919,51.15237 L173.47919,47.15925 Z M160.70119,51.15237 C158.61037,51.15238 156.70807,53.05471 156.70807,55.14549 L156.70807,75.90973 C156.70807,78.00052 158.61037,79.90285 160.70119,79.90285 L163.8957,79.90285 L163.8957,51.15237 L160.70119,51.15237 Z M191.84758,51.15237 L191.84758,79.90285 L194.24344,79.90285 C196.33424,79.90285 198.23653,78.00052 198.23653,75.90973 L198.23653,55.14549 C198.23653,53.05471 196.33424,51.15238 194.24344,51.15237 L191.84758,51.15237 Z M160.02816,98.06475 L160.02816,101.3562 L198.31709,101.3562 L198.31709,98.06475 L160.02816,98.06475 Z M71.5446,116.68205 L71.5446,119.9735 L117.49646,119.9735 L117.49646,116.68205 L71.5446,116.68205 Z"/>
    <path fill="#E61E00" d="M69.81199 114.95005L69.81199 118.24149 115.76385 118.24149 115.76385 114.95005 69.81199 114.95005zM158.29555 96.33274L158.29555 99.6242 196.5845 99.6242 196.5845 96.33274 158.29555 96.33274zM171.75478 43.03536C170.50033 43.03537 169.3501 44.18557 169.3501 45.44005L169.3501 49.41817 164.57041 49.41817 164.57041 78.18536 187.72666 78.18536 187.72666 49.41817 182.11572 49.41817 182.11572 45.44005C182.11572 44.18556 180.99518 43.03533 179.74072 43.03536L171.75478 43.03536zM171.75478 45.44005L179.74072 45.44005 179.74072 49.41817 171.75478 49.41817 171.75478 45.44005zM158.95947 49.41817C156.86865 49.41818 154.98135 51.3352 154.98135 53.42598L154.98135 74.17755C154.98135 76.26833 156.86865 78.18535 158.95947 78.18536L162.16572 78.18536 162.16572 49.41817 158.95947 49.41817zM190.10166 49.41817L190.10166 78.18536 192.50635 78.18536C194.59715 78.18535 196.51416 76.26833 196.51416 74.17755L196.51416 53.42598C196.51416 51.3352 194.59715 49.41818 192.50635 49.41817L190.10166 49.41817zM92.22197 22.61036C87.39514 22.61036 83.49385 26.44672 83.49385 31.19005 83.49385 35.93336 87.39514 39.76973 92.22197 39.76973 97.04882 39.76973 100.97978 35.93336 100.97978 31.19005 100.97978 26.44672 97.04882 22.61036 92.22197 22.61036zM78.95166 41.43223C78.88246 41.43923 78.81173 41.45213 78.74385 41.46193 78.56315 41.48813 78.38367 41.53003 78.20947 41.58068 78.0867 41.61608 77.94128 41.65258 77.82353 41.69943 77.72713 41.73813 77.64949 41.77213 77.55635 41.81818 77.41992 41.88548 77.29761 41.97343 77.17041 42.05568 77.08251 42.11208 76.98649 42.17033 76.90322 42.2338 76.7965 42.3158 76.7041 42.40851 76.60635 42.50099 76.51685 42.58529 76.42094 42.67508 76.33916 42.76818 76.20338 42.92241 76.09358 43.06812 75.98291 43.24318 75.96641 43.26918 75.94001 43.30568 75.92351 43.33218 75.82551 43.49592 75.76 43.65794 75.68601 43.83687 75.66391 43.88997 75.61741 43.93077 75.59701 43.98531 75.58701 44.01121 75.57641 44.04851 75.56731 44.07431 75.53611 44.16531 75.53271 44.24735 75.50791 44.3415 75.49991 44.3677 75.48491 44.4043 75.47821 44.4305 75.45611 44.5147 75.43531 44.61136 75.41881 44.69768 75.40821 44.75828 75.39641 44.81515 75.38911 44.87581 75.38111 44.91911 75.36361 44.95081 75.35941 44.99456L73.9641 60.5805 57.5766 64.26175C55.45089 64.73975 54.10007 66.82663 54.57816 68.95237 55.05616 71.07811 57.17275 72.42881 59.29847 71.95081L77.46722 67.85393C77.49352 67.84793 77.53002 67.83063 77.55622 67.82423 78.47988 67.83123 79.33943 67.53224 80.02028 66.99298L80.4359 73.70235 74.94372 70.52579C72.24563 68.96804 68.8421 69.87613 67.28434 72.57423 65.72658 75.27232 66.66438 78.70555 69.36247 80.26329L80.99997 86.97267 78.17965 88.60548C75.48157 90.16321 74.54384 93.56676 76.10153 96.26485 77.65929 98.96295 81.09251 99.87104 83.79059 98.31329L92.22184 93.47423 100.65309 98.31329C103.35119 99.87104 106.78438 98.96295 108.34215 96.26485 109.89992 93.56676 108.96212 90.16321 106.26403 88.60548L103.44372 86.97267 115.1109 80.26329C117.80899 78.70555 118.74678 75.27232 117.18903 72.57423 115.63126 69.87613 112.19805 68.96804 109.49997 70.52579L104.03747 73.70235 104.48278 66.33985C104.55518 66.43835 104.63922 66.51612 104.72028 66.60704 104.85918 66.76407 105.00193 66.91851 105.16559 67.05235 105.21249 67.09085 105.26509 67.13485 105.31403 67.1711 105.32403 67.1781 105.33463 67.1939 105.34373 67.2008 105.40883 67.2483 105.48317 67.276 105.55155 67.31955 105.69991 67.41405 105.86626 67.51259 106.02655 67.58674 106.03655 67.59274 106.04635 67.58174 106.05625 67.58674 106.19662 67.64974 106.32195 67.7178 106.47188 67.76486 106.51708 67.77906 106.57417 67.78206 106.62031 67.79456 106.62831 67.79756 106.64181 67.79156 106.65001 67.79456 106.69611 67.80656 106.7521 67.84356 106.79845 67.85396L124.99688 71.95084C127.12268 72.42884 129.20959 71.07814 129.68751 68.9524 130.1656 66.82667 128.84446 64.73978 126.71876 64.26177L111.1922 60.78834 109.11407 45.49927C109.11465 45.47267 109.11407 45.46667 109.11407 45.43987 109.11407 43.2612 107.37402 41.49143 105.19532 41.49143L102.37501 41.49143C102.29111 41.48443 102.19274 41.46173 102.10782 41.46173L82.33595 41.46173C82.24805 41.46173 82.15548 41.48533 82.06876 41.49143L80.10938 41.49143C79.99788 41.46823 79.86464 41.44533 79.75313 41.43203 79.71693 41.42703 79.70023 41.43603 79.66413 41.43203 79.56793 41.42303 79.46222 41.43403 79.36725 41.43203 79.28175 41.43003 79.21467 41.42703 79.12975 41.43203 79.07045 41.43503 79.0108 41.42603 78.95163 41.43203L78.95166 41.43223zM30.68552 37.37928C30.68552 44.54063 24.88014 50.34606 17.71874 50.34606 10.55736 50.34606 4.75197 44.54063 4.75197 37.37928 4.75197 30.21792 10.55736 24.41249 17.71874 24.41249 24.88014 24.41249 30.68552 30.21792 30.68552 37.37928zM8.19632 35.75841L42.63935 35.75841C47.01682 35.75841 50.54098 39.28254 50.54098 43.66006 50.54098 48.03756 47.01682 51.56169 42.63935 51.56169L8.19632 51.56169C3.81883 51.56169.29459 48.03756.29459 43.66006.29459 39.28254 3.81883 35.75841 8.19632 35.75841zM44.05756 30.49066C44.05756 37.65203 38.25209 43.45746 31.0907 43.45746 23.92939 43.45746 18.12393 37.65203 18.12393 30.49066 18.12393 23.32932 23.92939 17.5239 31.0907 17.5239 38.25209 17.5239 44.05756 23.32932 44.05756 30.49066zM30.68552 37.37928C30.68552 44.54063 24.88014 50.34606 17.71874 50.34606 10.55736 50.34606 4.75197 44.54063 4.75197 37.37928 4.75197 30.21792 10.55736 24.41249 17.71874 24.41249 24.88014 24.41249 30.68552 30.21792 30.68552 37.37928zM8.19632 35.75841L42.63935 35.75841C47.01682 35.75841 50.54098 39.28254 50.54098 43.66006 50.54098 48.03756 47.01682 51.56169 42.63935 51.56169L8.19632 51.56169C3.81883 51.56169.29459 48.03756.29459 43.66006.29459 39.28254 3.81883 35.75841 8.19632 35.75841zM44.05756 30.49066C44.05756 37.65203 38.25209 43.45746 31.0907 43.45746 23.92939 43.45746 18.12393 37.65203 18.12393 30.49066 18.12393 23.32932 23.92939 17.5239 31.0907 17.5239 38.25209 17.5239 44.05756 23.32932 44.05756 30.49066zM148.12501.98683C141.62504.98683 136.20105 5.59392 134.93976 11.72052 134.46834 11.64632 133.99084 11.60456 133.49868 11.60456 128.39956 11.60456 124.27232 15.73179 124.27232 20.83087 124.27232 25.61128 127.89884 29.55127 132.55452 30.02407 132.8111 30.05257 133.06858 30.07367 133.33304 30.07367 133.38904 30.07423 133.4429 30.07367 133.49868 30.07367L162.61869 30.07367C162.88258 30.07367 163.14121 30.05237 163.39728 30.02407 163.60777 30.00277 163.82065 29.96007 164.02669 29.92467 164.03469 29.92412 164.03739 29.92523 164.04319 29.92467 168.3871 29.17317 171.69591 25.38955 171.69591 20.83085 171.69591 15.73177 167.56867 11.60454 162.46955 11.60454 162.07129 11.60454 161.6786 11.63844 161.2935 11.68734 160.0189 5.57811 154.6125.9868 148.12488.9868L148.12501.98683zM222.39927 28.69776C219.2138 28.69776 216.55554 30.95568 215.9374 33.95828 215.70634 33.92198 215.47239 33.90138 215.23113 33.90138 212.7321 33.90138 210.70933 35.9241 210.70933 38.42314 210.70933 40.76597 212.48664 42.69694 214.76844 42.92866 214.89409 42.94266 215.02032 42.95296 215.14992 42.95296 215.17712 42.95334 215.20422 42.95296 215.23132 42.95296L229.50283 42.95296C229.63211 42.95296 229.75891 42.94246 229.8844 42.92866 229.9875 42.91816 230.09184 42.89726 230.1928 42.87986 230.1928 42.87949 230.2008 42.88023 230.2008 42.87986 232.32979 42.51156 233.95133 40.65724 233.95133 38.42305 233.95133 35.92402 231.92865 33.9013 229.4296 33.9013 229.23442 33.9013 229.04203 33.9179 228.85327 33.9419 228.22864 30.94782 225.57893 28.69766 222.39939 28.69766L222.39927 28.69776z"/>
  </g>
</svg>
