<svg xmlns="http://www.w3.org/2000/svg" width="288" height="160" viewBox="0 0 288 160">
  <g fill="none" fill-rule="evenodd" transform="translate(0 1)">
    <path fill="#0A6767" fill-rule="nonzero" d="M164.93644,123.04185 C164.52813,123.04185 164.11964,123.19763 163.80811,123.50916 L156.82914,130.48814 L159.08544,132.74445 L163.51321,137.17221 L172.31362,137.17221 L178.43998,143.29858 C178.74386,143.60213 179.17449,143.77464 179.6039,143.76486 C180.02128,143.76498 180.43614,143.59344 180.73154,143.29858 L188.42526,135.60485 L188.42326,135.60406 C188.987,135.0082 188.97286,133.96065 188.39326,133.38023 C187.81278,132.80092 186.76551,132.78696 186.16979,133.35063 L186.16779,133.34863 L186.13999,133.37643 C186.13904,133.37738 186.13699,133.37843 186.13599,133.37943 C186.13399,133.38143 186.13299,133.38243 186.13099,133.38443 L179.58373,139.9317 L173.78786,134.13583 L173.79186,131.20283 L166.09814,123.50909 C165.79735,123.20821 165.37218,123.03564 164.94678,123.04179 C164.94478,123.0419 164.94378,123.04202 164.94178,123.04215 L164.94143,123.04215 C164.93943,123.04213 164.93643,123.04179 164.93543,123.04179 L164.93644,123.04185 Z M164.95394,126.87597 L168.38322,130.30527 L161.41437,130.41555 L164.95394,126.87597 Z M178.1741,129.30781 C176.62029,129.30779 175.20653,130.72156 175.20656,132.27538 C175.20654,133.82919 176.62029,135.24295 178.1741,135.24293 C179.72791,135.24296 181.14167,133.8292 181.14165,132.27538 C181.14169,130.72156 179.72791,129.30778 178.1741,129.30781 Z M155.67854,132.47849 L155.67854,136.99107 L155.67854,146.5795 L146.81601,155.44207 C146.22529,156.03276 146.22529,157.10769 146.81601,157.69838 C147.40671,158.28908 148.48159,158.28908 149.07229,157.69838 L158.06222,148.70845 L158.86945,148.70845 L158.86945,148.64465 L167.96547,148.64465 C168.33971,148.65165 168.71519,148.52761 169.01875,148.27258 C169.02675,148.26558 169.03465,148.25848 169.04255,148.25138 C169.06955,148.22778 169.09705,148.20478 169.12285,148.17918 C169.12885,148.17318 169.13185,148.16798 169.13715,148.16328 C169.14315,148.15728 169.14795,148.15148 169.15325,148.14558 C169.18535,148.11148 169.21645,148.07678 169.24505,148.04084 C169.24805,148.03584 169.25205,148.03184 169.25505,148.02734 C169.28375,147.99034 169.31105,147.95294 169.33595,147.9143 C169.33995,147.9073 169.34495,147.9001 169.34845,147.8931 C169.37295,147.8537 169.39645,147.814 169.41725,147.77305 C169.41925,147.76805 169.42125,147.76305 169.42325,147.75895 C169.44335,147.71825 169.46205,147.67725 169.47835,147.63537 C169.48435,147.61937 169.49005,147.60337 169.49555,147.58717 C169.50715,147.55487 169.51895,147.52187 169.52835,147.48867 C169.53435,147.46577 169.54005,147.44277 169.54515,147.41957 C169.55115,147.39367 169.55775,147.36717 169.56265,147.34097 C169.56765,147.31217 169.57165,147.28337 169.57515,147.25447 C169.57815,147.23207 169.58115,147.21027 169.58315,147.18787 C169.58715,147.14207 169.59015,147.09597 169.59015,147.05 C169.58993,146.89686 169.56745,146.74379 169.52385,146.59701 C169.52366,146.59648 169.5233,146.59701 169.52326,146.59701 C169.50876,146.54811 169.49176,146.49981 169.47276,146.45249 C169.4724,146.4519 169.47217,146.45249 169.47076,146.45249 C169.45316,146.40989 169.43386,146.36809 169.41276,146.32721 C169.40976,146.32121 169.40676,146.31601 169.40476,146.31071 C169.38066,146.26511 169.35426,146.22061 169.32586,146.17744 L169.3255,146.17708 C169.2577,146.07397 169.17787,145.97878 169.08817,145.89403 L158.86802,135.67422 L155.6771,132.48329 L155.67854,132.47849 Z M158.86945,140.18165 L164.14147,145.45363 L158.86945,145.45363 L158.86945,140.18165 Z M117.1106,123.04185 C116.70229,123.04185 116.29381,123.19763 115.98227,123.50916 L109.00331,130.48814 L111.2596,132.74445 L115.68737,137.17221 L124.48779,137.17221 L130.61415,143.29858 C130.91803,143.60213 131.34865,143.77464 131.77807,143.76486 C132.19543,143.76498 132.61029,143.59344 132.90569,143.29858 L140.59941,135.60485 L140.59741,135.60406 C141.16115,135.0082 141.14701,133.96065 140.56741,133.38023 C139.98693,132.80092 138.93967,132.78696 138.34393,133.35063 L138.34193,133.34863 L138.31413,133.37643 C138.31318,133.37738 138.31113,133.37843 138.31013,133.37943 C138.30813,133.38143 138.30713,133.38243 138.30513,133.38443 L131.75787,139.9317 L125.96199,134.13583 L125.96599,131.20283 L118.27227,123.50909 C117.97148,123.20821 117.54631,123.03564 117.1209,123.04179 C117.1189,123.0419 117.1179,123.04202 117.1159,123.04215 L117.11555,123.04215 C117.11355,123.04213 117.11055,123.04179 117.10955,123.04179 L117.1106,123.04185 Z M117.1281,126.87597 L120.55738,130.30527 L113.58854,130.41555 L117.1281,126.87597 Z M130.34826,129.30781 C128.79444,129.30779 127.38068,130.72156 127.38072,132.27538 C127.38069,133.82919 128.79445,135.24295 130.34826,135.24293 C131.90208,135.24296 133.31584,133.8292 133.31582,132.27538 C133.31585,130.72156 131.90208,129.30778 130.34826,129.30781 Z M107.85271,132.47849 L107.85271,136.99107 L107.85271,146.5795 L98.99018,155.44207 C98.39946,156.03276 98.39946,157.10769 98.99018,157.69838 C99.58087,158.28908 100.65576,158.28908 101.24645,157.69838 L110.23638,148.70845 L111.04361,148.70845 L111.04361,148.64465 L120.13964,148.64465 C120.51387,148.65165 120.88936,148.52761 121.19292,148.27258 C121.20092,148.26558 121.20882,148.25848 121.21672,148.25138 C121.24372,148.22778 121.27122,148.20478 121.29702,148.17918 C121.30302,148.17318 121.30602,148.16798 121.31132,148.16328 C121.31732,148.15728 121.32212,148.15148 121.32742,148.14558 C121.35952,148.11148 121.39062,148.07678 121.41922,148.04084 C121.42222,148.03584 121.42622,148.03184 121.42922,148.02734 C121.45792,147.99034 121.48532,147.95294 121.51012,147.9143 C121.51412,147.9073 121.51912,147.9001 121.52262,147.8931 C121.54712,147.8537 121.57062,147.814 121.59142,147.77305 C121.59342,147.76805 121.59542,147.76305 121.59742,147.75895 C121.61752,147.71825 121.63622,147.67725 121.65262,147.63537 C121.65862,147.61937 121.66432,147.60337 121.66982,147.58717 C121.68142,147.55487 121.69322,147.52187 121.70262,147.48867 C121.70862,147.46577 121.71432,147.44277 121.71932,147.41957 C121.72532,147.39367 121.73182,147.36717 121.73682,147.34097 C121.74182,147.31217 121.74582,147.28337 121.74932,147.25447 C121.75232,147.23207 121.75532,147.21027 121.75732,147.18787 C121.76132,147.14207 121.76432,147.09597 121.76432,147.05 C121.7641,146.89686 121.74162,146.74379 121.69802,146.59701 C121.69784,146.59648 121.69748,146.59701 121.69745,146.59701 C121.68295,146.54811 121.66595,146.49981 121.64695,146.45249 C121.64658,146.4519 121.64636,146.45249 121.64617,146.45249 C121.62867,146.40989 121.60937,146.36809 121.58827,146.32721 C121.58527,146.32121 121.58227,146.31601 121.58027,146.31071 C121.55617,146.26511 121.52987,146.22061 121.50147,146.17744 L121.50111,146.17708 C121.43331,146.07397 121.35349,145.97878 121.2638,145.89403 L111.04365,135.67422 L107.85273,132.48329 L107.85271,132.47849 Z M111.04361,140.18165 L116.31564,145.45363 L111.04361,145.45363 L111.04361,140.18165 Z M69.28477,123.04185 C68.87645,123.04185 68.46798,123.19763 68.15644,123.50916 L61.17747,130.48814 L63.43377,132.74445 L67.86153,137.17221 L76.66195,137.17221 L82.78832,143.29858 C83.0922,143.60213 83.52282,143.77464 83.95224,143.76486 C84.36961,143.76498 84.78446,143.59344 85.07986,143.29858 L92.77358,135.60485 L92.7728,135.60406 C93.33655,135.0082 93.32239,133.96065 92.7428,133.38023 C92.1623,132.80092 91.11504,132.78696 90.51931,133.35063 L90.51731,133.34863 L90.48951,133.37643 C90.48856,133.37738 90.48651,133.37843 90.48551,133.37943 C90.48351,133.38143 90.48251,133.38243 90.48051,133.38443 L83.93325,139.9317 L78.13738,134.13583 L78.14138,131.20283 L70.44765,123.50909 C70.14686,123.20821 69.72171,123.03564 69.29631,123.04179 C69.29431,123.0419 69.29331,123.04202 69.29131,123.04215 L69.29095,123.04215 C69.28895,123.04213 69.28595,123.04179 69.28495,123.04179 L69.28477,123.04185 Z M69.30227,126.87597 L72.73156,130.30527 L65.76271,130.41555 L69.30227,126.87597 Z M82.52243,129.30781 C80.96861,129.30779 79.55485,130.72156 79.55488,132.27538 C79.55486,133.82919 80.96862,135.24295 82.52243,135.24293 C84.07625,135.24296 85.49001,133.8292 85.48999,132.27538 C85.49002,130.72156 84.07625,129.30778 82.52243,129.30781 Z M60.02687,132.47849 L60.02687,136.99107 L60.02687,146.5795 L51.16434,155.44207 C50.57362,156.03276 50.57362,157.10769 51.16434,157.69838 C51.75504,158.28908 52.82993,158.28908 53.42062,157.69838 L62.41054,148.70845 L63.21778,148.70845 L63.21778,148.64465 L72.3138,148.64465 C72.68803,148.65165 73.06353,148.52761 73.36709,148.27258 C73.37509,148.26558 73.38299,148.25848 73.39089,148.25138 C73.41789,148.22778 73.44539,148.20478 73.47119,148.17918 C73.47719,148.17318 73.48019,148.16798 73.48549,148.16328 C73.49149,148.15728 73.49629,148.15148 73.50159,148.14558 C73.53369,148.11148 73.56479,148.07678 73.59349,148.04084 C73.59649,148.03584 73.60049,148.03184 73.60349,148.02734 C73.63219,147.99034 73.65949,147.95294 73.68439,147.9143 C73.68839,147.9073 73.69339,147.9001 73.69689,147.8931 C73.72139,147.8537 73.74479,147.814 73.76569,147.77305 C73.76769,147.76805 73.77069,147.76305 73.77269,147.75895 C73.79279,147.71825 73.81139,147.67725 73.82789,147.63537 C73.83389,147.61937 73.83959,147.60337 73.84509,147.58717 C73.85669,147.55487 73.86849,147.52187 73.87789,147.48867 C73.88389,147.46577 73.88959,147.44277 73.89459,147.41957 C73.90059,147.39367 73.90719,147.36717 73.91209,147.34097 C73.91709,147.31217 73.92109,147.28337 73.92459,147.25447 C73.92759,147.23207 73.93059,147.21027 73.93259,147.18787 C73.93659,147.14207 73.93959,147.09597 73.93959,147.05 C73.93937,146.89686 73.91689,146.74379 73.87329,146.59701 C73.87312,146.59648 73.87276,146.59701 73.8727,146.59701 C73.8582,146.54811 73.8414,146.49981 73.8222,146.45249 C73.82185,146.4519 73.82162,146.45249 73.82142,146.45249 C73.80392,146.40989 73.78462,146.36809 73.76352,146.32721 C73.76052,146.32121 73.75752,146.31601 73.75552,146.31071 C73.73142,146.26511 73.70512,146.22061 73.67672,146.17744 L73.67636,146.17708 C73.60856,146.07397 73.5287,145.97876 73.43898,145.89402 L63.21882,135.6742 L60.02791,132.48327 L60.02687,132.47849 Z M63.21778,140.18165 L68.48979,145.45363 L63.21778,145.45363 L63.21778,140.18165 Z M21.458892,123.04185 C21.050583,123.04185 20.642095,123.19763 20.330565,123.50916 L13.351596,130.48814 L15.607888,132.74445 L20.035665,137.17221 L28.836077,137.17221 L34.962439,143.29858 C35.266322,143.60213 35.696941,143.77464 36.126357,143.76486 C36.543728,143.76498 36.958588,143.59344 37.253978,143.29858 L44.94771,135.60485 L44.94692,135.60406 C45.51067,135.00821 45.49655,133.96066 44.91692,133.38023 C44.33643,132.80092 43.28916,132.78696 42.69344,133.35063 L42.69265,133.34863 L42.66475,133.37643 C42.66375,133.37738 42.66175,133.37843 42.66075,133.37943 C42.65875,133.38143 42.65775,133.38243 42.65575,133.38443 L36.108494,139.9317 L30.312625,134.13583 L30.316525,131.20283 L22.62279,123.50909 C22.322003,123.20821 21.89684,123.03564 21.471439,123.04179 C21.469839,123.0419 21.468339,123.04202 21.466639,123.04215 L21.466279,123.04215 C21.463879,123.04213 21.461479,123.04179 21.459979,123.04179 L21.458892,123.04185 Z M21.476342,126.87597 L24.905628,130.30527 L17.936781,130.41555 L21.476342,126.87597 Z M34.696506,129.30781 C33.142689,129.30778 31.728921,130.72156 31.728949,132.27538 C31.728926,133.8292 33.142692,135.24296 34.696506,135.24293 C36.250321,135.24296 37.664087,133.8292 37.664063,132.27538 C37.664092,130.72156 36.250324,129.30778 34.696506,129.30781 Z M12.200947,132.47849 L12.200947,136.99107 L12.200947,146.5795 L3.338408,155.44207 C2.747692,156.03276 2.747692,157.10769 3.338408,157.69838 C3.929102,158.28908 5.004007,158.28908 5.594701,157.69838 L14.584622,148.70845 L15.39186,148.70845 L15.39186,148.64465 L24.487877,148.64465 C24.862112,148.65165 25.237598,148.52761 25.541159,148.27258 C25.549159,148.26558 25.557039,148.25848 25.564879,148.25138 C25.591899,148.22778 25.619459,148.20478 25.645149,148.17918 C25.650649,148.17318 25.654449,148.16798 25.659479,148.16328 C25.664879,148.15728 25.670219,148.15148 25.675529,148.14558 C25.707629,148.11148 25.738709,148.07678 25.767319,148.04084 C25.770619,148.03584 25.773919,148.03184 25.777119,148.02734 C25.805769,147.99034 25.833179,147.95294 25.858089,147.9143 C25.862289,147.9073 25.866589,147.9001 25.870619,147.8931 C25.895129,147.8537 25.918609,147.814 25.939359,147.77305 C25.941559,147.76805 25.943559,147.76305 25.945659,147.75895 C25.965779,147.71825 25.984329,147.67725 26.000779,147.63537 C26.006779,147.61937 26.012459,147.60337 26.017919,147.58717 C26.029509,147.55487 26.041249,147.52187 26.050719,147.48867 C26.056819,147.46577 26.062359,147.44277 26.067399,147.41957 C26.073699,147.39367 26.080009,147.36717 26.084849,147.34097 C26.089849,147.31217 26.093949,147.28337 26.097379,147.25447 C26.100479,147.23207 26.103679,147.21027 26.105379,147.18787 C26.109679,147.14207 26.111979,147.09597 26.112379,147.05 C26.112168,146.89686 26.089759,146.74379 26.046069,146.59701 C26.045888,146.59648 26.045527,146.59701 26.045473,146.59701 C26.030933,146.54811 26.014053,146.49981 25.994893,146.45249 C25.994533,146.4519 25.994306,146.45249 25.993293,146.45249 C25.975823,146.40989 25.956513,146.36809 25.935423,146.32721 C25.932323,146.32121 25.929923,146.31601 25.927423,146.31071 C25.903303,146.26511 25.876973,146.22061 25.848543,146.17744 L25.848191,146.17708 C25.780371,146.07397 25.700538,145.97876 25.610823,145.89402 L15.39077,135.67411 L12.199847,132.4832 L12.200947,132.47849 Z M15.39186,140.18165 L20.663875,145.45363 L15.39186,145.45363 L15.39186,140.18165 Z M212.76234,28.89085 C212.35403,28.89085 211.94555,29.04663 211.63402,29.35816 L204.65505,36.33714 L206.91134,38.59343 L211.33911,43.0212 L220.13953,43.0212 L226.26589,49.14757 C226.56978,49.45113 227.00039,49.62364 227.42981,49.61384 C227.84718,49.61397 228.26204,49.44242 228.55743,49.14757 L236.25116,41.45384 L236.25037,41.45184 C236.81412,40.85599 236.79997,39.80843 236.22037,39.228 C235.63988,38.64869 234.5926,38.63473 233.99688,39.1984 L233.99488,39.19762 L233.96708,39.22542 C233.96613,39.22637 233.96408,39.22742 233.96308,39.22842 C233.96108,39.23042 233.96008,39.23142 233.95808,39.23342 L227.41083,45.78068 L221.61496,39.98482 L221.61896,37.05183 L213.92522,29.35809 C213.62443,29.0572 213.19927,28.88464 212.77387,28.89077 C212.77187,28.89088 212.77087,28.891 212.76887,28.89113 L212.7685,28.89113 C212.7665,28.89112 212.7635,28.89077 212.7625,28.89077 L212.76234,28.89085 Z M212.77984,32.72498 L216.20913,36.15426 L209.24028,36.26455 L212.77984,32.72498 Z M226,35.15682 C224.44618,35.1568 223.03242,36.57056 223.03244,38.12438 C223.03243,39.67818 224.44619,41.09194 226,41.09192 C227.55382,41.09195 228.96758,39.6782 228.96756,38.12438 C228.96759,36.57056 227.55382,35.15679 226,35.15682 Z M203.50444,38.3275 L203.50444,42.84007 L203.50444,52.42853 L194.64191,61.29107 C194.05121,61.88177 194.05121,62.95666 194.64191,63.54736 C195.2326,64.13805 196.3075,64.13805 196.89819,63.54736 L205.88812,54.55743 L206.69535,54.55743 L206.69535,54.49363 L215.79137,54.49363 C216.16561,54.50063 216.5411,54.37657 216.84466,54.12159 C216.85266,54.11459 216.86056,54.10739 216.86836,54.10029 C216.89536,54.07669 216.92286,54.05369 216.94866,54.02809 C216.95466,54.02209 216.95766,54.01719 216.96296,54.01199 C216.96896,54.00599 216.97376,54.00039 216.97906,53.99449 C217.01116,53.96059 217.04226,53.92569 217.07086,53.8898 C217.07386,53.8848 217.07786,53.8808 217.08086,53.8761 C217.10956,53.8392 217.13686,53.8017 217.16176,53.76303 C217.16576,53.75603 217.17076,53.74883 217.17426,53.74173 C217.19876,53.70233 217.22226,53.66273 217.24306,53.62167 C217.24506,53.61667 217.24806,53.61167 217.25006,53.60737 C217.27016,53.56667 217.28876,53.52567 217.30526,53.48382 C217.31126,53.46772 217.31696,53.45162 217.32246,53.43532 C217.33406,53.40262 217.34586,53.37002 217.35526,53.33692 C217.36126,53.31392 217.36696,53.29092 217.37196,53.26772 C217.37796,53.24152 217.38446,53.21562 217.38946,53.18922 C217.39446,53.16042 217.39846,53.13162 217.40196,53.10262 C217.40496,53.08032 217.40796,53.05822 217.40996,53.03602 C217.41396,52.99022 217.41696,52.94412 217.41696,52.89815 C217.41674,52.74502 217.39426,52.59192 217.35066,52.44516 C217.35049,52.44461 217.35013,52.44316 217.35007,52.44316 C217.33557,52.39426 217.31867,52.34606 217.29957,52.29868 C217.29922,52.29809 217.29898,52.29668 217.29757,52.29668 C217.27997,52.25408 217.26067,52.21228 217.23957,52.17139 C217.23657,52.16539 217.23357,52.16009 217.23157,52.15459 C217.20747,52.10889 217.18117,52.06439 217.15277,52.02127 L217.15241,52.02092 C217.08461,51.91783 217.00479,51.82263 216.9151,51.73788 L206.69495,41.51809 L203.50403,38.32717 L203.50444,38.3275 Z M206.69535,46.03064 L211.96738,51.30266 L206.69535,51.30266 L206.69535,46.03064 Z M164.93647,28.89085 C164.52816,28.89085 164.11967,29.04663 163.80814,29.35816 L156.82917,36.33714 L159.08546,38.59343 L163.51324,43.0212 L172.31365,43.0212 L178.44001,49.14757 C178.74389,49.45113 179.17452,49.62364 179.60393,49.61384 C180.02131,49.61398 180.43617,49.44243 180.73157,49.14757 L188.42529,41.45384 L188.42329,41.45184 C188.98703,40.85599 188.97289,39.80843 188.39329,39.228 C187.81281,38.64869 186.76554,38.63473 186.16982,39.1984 L186.16782,39.19762 L186.14002,39.22542 C186.13907,39.22637 186.13702,39.22742 186.13602,39.22842 C186.13402,39.23042 186.13302,39.23142 186.13102,39.23342 L179.58376,45.78068 L173.78789,39.98482 L173.79189,37.05183 L166.09816,29.35809 C165.79738,29.0572 165.37221,28.88463 164.94681,28.89077 C164.94481,28.89088 164.94381,28.891 164.94181,28.89113 L164.94146,28.89113 C164.93946,28.89112 164.93646,28.89077 164.93546,28.89077 L164.93647,28.89085 Z M164.95397,32.72498 L168.38325,36.15426 L161.4144,36.26455 L164.95397,32.72498 Z M178.17413,35.15682 C176.62032,35.1568 175.20656,36.57057 175.20659,38.12438 C175.20657,39.67818 176.62032,41.09194 178.17413,41.09192 C179.72794,41.09195 181.1417,39.6782 181.14168,38.12438 C181.14172,36.57056 179.72794,35.15679 178.17413,35.15682 Z M155.67857,38.3275 L155.67857,42.84007 L155.67857,52.42853 L146.81604,61.29107 C146.22534,61.88177 146.22534,62.95666 146.81604,63.54736 C147.40674,64.13805 148.48162,64.13805 149.07232,63.54736 L158.06225,54.55743 L158.86948,54.55743 L158.86948,54.49363 L167.9655,54.49363 C168.33974,54.50063 168.71522,54.37657 169.01878,54.12159 C169.02678,54.11459 169.03468,54.10739 169.04248,54.10029 C169.06948,54.07669 169.09698,54.05369 169.12278,54.02809 C169.12878,54.02209 169.13178,54.01719 169.13718,54.01199 C169.14318,54.00599 169.14798,54.00039 169.15328,53.99449 C169.18538,53.96059 169.21648,53.92569 169.24508,53.8898 C169.24808,53.8848 169.25208,53.8808 169.25508,53.8761 C169.28378,53.8392 169.31108,53.8017 169.33598,53.76303 C169.33998,53.75603 169.34498,53.74883 169.34848,53.74173 C169.37298,53.70233 169.39648,53.66273 169.41728,53.62167 C169.41928,53.61667 169.42128,53.61167 169.42328,53.60737 C169.44338,53.56667 169.46208,53.52567 169.47838,53.48382 C169.48438,53.46772 169.49008,53.45162 169.49558,53.43532 C169.50718,53.40262 169.51898,53.37002 169.52838,53.33692 C169.53438,53.31392 169.54008,53.29092 169.54518,53.26772 C169.55118,53.24152 169.55778,53.21562 169.56268,53.18922 C169.56768,53.16042 169.57168,53.13162 169.57518,53.10262 C169.57818,53.08032 169.58118,53.05822 169.58318,53.03602 C169.58718,52.99022 169.59018,52.94412 169.59018,52.89815 C169.58997,52.74502 169.56748,52.59192 169.52388,52.44516 C169.5237,52.44461 169.52334,52.44316 169.5233,52.44316 C169.5088,52.39426 169.4918,52.34606 169.4728,52.29868 C169.47244,52.29809 169.47221,52.29668 169.4708,52.29668 C169.4532,52.25408 169.4339,52.21228 169.4128,52.17139 C169.4098,52.16539 169.4068,52.16009 169.4048,52.15459 C169.3807,52.10889 169.3543,52.06439 169.3259,52.02127 L169.32553,52.02092 C169.25773,51.91782 169.1779,51.82263 169.08821,51.73788 L158.86806,41.51809 L155.67714,38.32717 L155.67857,38.3275 Z M158.86948,46.03064 L164.1415,51.30266 L158.86948,51.30266 L158.86948,46.03064 Z M107.11063,28.89085 C106.70232,28.89085 106.29383,29.04662 105.9823,29.35816 L99.00334,36.33714 L101.25963,38.59343 L105.6874,43.0212 L114.48782,43.0212 L120.61418,49.14757 C120.91806,49.45113 121.34868,49.62364 121.7781,49.61384 C122.19546,49.61397 122.61032,49.44242 122.90572,49.14757 L130.59944,41.45384 L130.59744,41.45184 C131.16118,40.85599 131.14704,39.80843 130.56744,39.228 C129.98696,38.64869 128.9397,38.63473 128.34396,39.1984 L128.34196,39.19762 L128.31416,39.22542 C128.31321,39.22637 128.31116,39.22742 128.31016,39.22842 C128.30816,39.23042 128.30716,39.23142 128.30516,39.23342 L121.75791,45.78068 L115.96203,39.98482 L115.96603,37.05183 L108.27231,29.35809 C107.97152,29.0572 107.54634,28.88463 107.12094,28.89077 C107.11894,28.89088 107.11794,28.891 107.11594,28.89113 L107.11559,28.89113 C107.11359,28.89112 107.11059,28.89077 107.10959,28.89077 L107.11063,28.89085 Z M107.12813,32.72498 L110.55741,36.15426 L103.58857,36.26455 L107.12813,32.72498 Z M120.34829,35.15682 C118.79447,35.1568 117.38071,36.57056 117.38075,38.12438 C117.38072,39.67818 118.79448,41.09194 120.34829,41.09192 C121.90211,41.09195 123.31587,39.6782 123.31585,38.12438 C123.31588,36.57056 121.90211,35.15679 120.34829,35.15682 Z M97.85274,38.3275 L97.85274,42.84007 L97.85274,52.42853 L88.99021,61.29107 C88.39951,61.88178 88.3995,62.95666 88.99021,63.54736 C89.5809,64.13805 90.65579,64.13805 91.24648,63.54736 L100.23641,54.55743 L101.04364,54.55743 L101.04364,54.49363 L110.13967,54.49363 C110.5139,54.50063 110.88939,54.37657 111.19295,54.12159 C111.20095,54.11459 111.20885,54.10739 111.21675,54.10029 C111.24375,54.07669 111.27125,54.05369 111.29705,54.02809 C111.30305,54.02209 111.30605,54.01719 111.31145,54.01199 C111.31745,54.00599 111.32225,54.00039 111.32755,53.99449 C111.35965,53.96059 111.39075,53.92569 111.41935,53.8898 C111.42235,53.8848 111.42635,53.8808 111.42935,53.8761 C111.45805,53.8392 111.48535,53.8017 111.51025,53.76303 C111.51425,53.75603 111.51925,53.74883 111.52275,53.74173 C111.54725,53.70233 111.57075,53.66273 111.59155,53.62167 C111.59355,53.61667 111.59555,53.61167 111.59755,53.60737 C111.61765,53.56667 111.63635,53.52567 111.65275,53.48382 C111.65875,53.46772 111.66445,53.45162 111.66995,53.43532 C111.68155,53.40262 111.69335,53.37002 111.70275,53.33692 C111.70875,53.31392 111.71445,53.29092 111.71945,53.26772 C111.72545,53.24152 111.73195,53.21562 111.73695,53.18922 C111.74195,53.16042 111.74595,53.13162 111.74945,53.10262 C111.75245,53.08032 111.75545,53.05822 111.75745,53.03602 C111.76145,52.99022 111.76445,52.94412 111.76445,52.89815 C111.76424,52.74502 111.74175,52.59192 111.69815,52.44516 C111.69798,52.44461 111.69762,52.44316 111.69758,52.44316 C111.68308,52.39426 111.66618,52.34606 111.64708,52.29868 C111.64672,52.29809 111.6465,52.29668 111.64631,52.29668 C111.62881,52.25408 111.60951,52.21228 111.58841,52.17139 C111.58541,52.16539 111.58241,52.16009 111.58041,52.15459 C111.55631,52.10889 111.53001,52.06439 111.50161,52.02127 L111.50125,52.02092 C111.43345,51.91783 111.35363,51.82263 111.26394,51.73788 L101.04379,41.51809 L97.85287,38.32717 L97.85274,38.3275 Z M101.04364,46.03064 L106.31567,51.30266 L101.04364,51.30266 L101.04364,46.03064 Z M59.2848,28.89085 C58.87648,28.89085 58.468005,29.04662 58.15647,29.35816 L51.1775,36.33714 L53.4338,38.59343 L57.86156,43.0212 L66.66198,43.0212 L72.78834,49.14757 C73.09224,49.45113 73.52285,49.62364 73.95227,49.61384 C74.36963,49.61397 74.78449,49.44242 75.07989,49.14757 L82.77361,41.45384 L82.77283,41.45184 C83.33657,40.85599 83.32242,39.80843 82.74283,39.228 C82.16233,38.64869 81.11507,38.63473 80.51934,39.1984 L80.51734,39.19762 L80.48954,39.22542 C80.48859,39.22637 80.48654,39.22742 80.48554,39.22842 C80.48354,39.23042 80.48254,39.23142 80.48054,39.23342 L73.93328,45.78068 L68.13741,39.98482 L68.14141,37.05183 L60.44768,29.35809 C60.1469,29.0572 59.72174,28.88463 59.29633,28.89077 C59.29433,28.89088 59.29333,28.891 59.29133,28.89113 L59.29098,28.89113 C59.28898,28.89112 59.28598,28.89077 59.28498,28.89077 L59.2848,28.89085 Z M59.3023,32.72498 L62.73159,36.15426 L55.76274,36.26455 L59.3023,32.72498 Z M72.52246,35.15682 C70.96864,35.1568 69.55488,36.57056 69.55491,38.12438 C69.55489,39.67818 70.96865,41.09194 72.52246,41.09192 C74.07628,41.09195 75.49004,39.6782 75.49002,38.12438 C75.49005,36.57056 74.07628,35.15679 72.52246,35.15682 Z M50.0269,38.3275 L50.0269,42.84007 L50.0269,52.42853 L41.16437,61.29107 C40.57367,61.88177 40.57367,62.95666 41.16437,63.54736 C41.75507,64.13805 42.82996,64.13805 43.42065,63.54736 L52.41057,54.55743 L53.21781,54.55743 L53.21781,54.49363 L62.31383,54.49363 C62.68806,54.50063 63.06356,54.37657 63.36712,54.12159 C63.37512,54.11459 63.38302,54.10739 63.39082,54.10029 C63.41782,54.07669 63.44532,54.05369 63.47112,54.02809 C63.47712,54.02209 63.48012,54.01719 63.48552,54.01199 C63.49152,54.00599 63.49632,54.00039 63.50152,53.99449 C63.53362,53.96059 63.56472,53.92569 63.59342,53.8898 C63.59642,53.8848 63.60042,53.8808 63.60342,53.8761 C63.63212,53.8392 63.65942,53.8017 63.68432,53.76303 C63.68832,53.75603 63.69332,53.74883 63.69682,53.74173 C63.72132,53.70233 63.74472,53.66273 63.76562,53.62167 C63.76762,53.61667 63.77062,53.61167 63.77262,53.60737 C63.79272,53.56667 63.81132,53.52567 63.82782,53.48382 C63.83382,53.46772 63.83952,53.45162 63.84502,53.43532 C63.85662,53.40262 63.86842,53.37002 63.87782,53.33692 C63.88382,53.31392 63.88952,53.29092 63.89452,53.26772 C63.90052,53.24152 63.90712,53.21562 63.91202,53.18922 C63.91702,53.16042 63.92102,53.13162 63.92452,53.10262 C63.92752,53.08032 63.93052,53.05822 63.93252,53.03602 C63.93652,52.99022 63.93952,52.94412 63.93952,52.89815 C63.93931,52.74502 63.91682,52.59192 63.87322,52.44516 C63.87305,52.44461 63.87269,52.44316 63.87263,52.44316 C63.85813,52.39426 63.84123,52.34606 63.82213,52.29868 C63.82178,52.29809 63.82155,52.29668 63.82135,52.29668 C63.80385,52.25408 63.78455,52.21228 63.76355,52.17139 C63.76055,52.16539 63.75755,52.16009 63.75555,52.15459 C63.73145,52.10889 63.70515,52.06439 63.67665,52.02127 L63.67629,52.02092 C63.60849,51.91782 63.52863,51.82263 63.43891,51.73788 L53.21875,41.51808 L50.02784,38.32716 L50.0269,38.3275 Z M53.21781,46.03064 L58.48982,51.30266 L53.21781,51.30266 L53.21781,46.03064 Z M220.99296,75.96636 C220.58465,75.96636 220.17618,76.12213 219.86464,76.43366 L212.88567,83.41264 L215.14197,85.66893 L219.56974,90.09671 L228.37016,90.09671 L234.49652,96.22307 C234.8004,96.52663 235.23102,96.69913 235.66044,96.68933 C236.0778,96.68947 236.49266,96.51792 236.78806,96.22307 L244.48178,88.52934 L244.481,88.52734 C245.04474,87.93148 245.03059,86.88393 244.451,86.30351 C243.87051,85.72419 242.82325,85.71025 242.22751,86.27391 L242.22551,86.27191 L242.19771,86.29971 C242.19676,86.30066 242.19471,86.30171 242.19371,86.30271 C242.19171,86.30471 242.19071,86.30571 242.18871,86.30771 L235.64144,92.85495 L229.84558,87.0591 L229.84958,84.12611 L222.15583,76.43237 C221.85504,76.13149 221.42988,75.95892 221.00448,75.96507 C221.00248,75.96518 221.00148,75.96529 220.99948,75.96543 L220.99912,75.96543 C220.99712,75.96541 220.99412,75.96507 220.99312,75.96507 L220.99296,75.96636 Z M221.01046,79.80048 L224.43974,83.22975 L217.47088,83.34006 L221.01046,79.80048 Z M234.23061,82.23231 C232.67679,82.23229 231.26303,83.64605 231.26306,85.19987 C231.26303,86.75369 232.67679,88.16745 234.23061,88.16744 C235.78443,88.16745 237.19819,86.75369 237.19816,85.19987 C237.19819,83.64605 235.78443,82.23229 234.23061,82.23231 Z M211.73505,85.40299 L211.73505,89.91557 L211.73505,99.50402 L202.87253,108.36656 C202.28183,108.95726 202.28183,110.03216 202.87253,110.62286 C203.46322,111.21355 204.53811,111.21355 205.12881,110.62286 L214.11873,101.63293 L214.92597,101.63293 L214.92597,101.56913 L224.02199,101.56913 C224.39622,101.57613 224.77172,101.45208 225.07527,101.19709 C225.08327,101.19009 225.09117,101.18289 225.09907,101.17579 C225.12607,101.15219 225.15357,101.12919 225.17937,101.10349 C225.18537,101.09749 225.18937,101.09259 225.19367,101.08739 C225.19967,101.08139 225.20447,101.07579 225.20977,101.06989 C225.24187,101.03599 225.27297,101.00109 225.30157,100.9652 C225.30457,100.9602 225.30857,100.9562 225.31157,100.9515 C225.34027,100.9146 225.36767,100.8771 225.39247,100.83842 C225.39647,100.83142 225.40147,100.82422 225.40497,100.81712 C225.42947,100.77782 225.45297,100.73812 225.47377,100.69707 C225.47577,100.69207 225.47777,100.68707 225.47977,100.68267 C225.49987,100.64197 225.51857,100.60097 225.53487,100.55911 C225.54087,100.54301 225.54657,100.52691 225.55207,100.51061 C225.56367,100.47791 225.57547,100.44531 225.58487,100.41221 C225.59087,100.38921 225.59657,100.36621 225.60157,100.34301 C225.60757,100.31681 225.61417,100.29091 225.61907,100.26451 C225.62407,100.23571 225.62807,100.20691 225.63157,100.17801 C225.63457,100.15571 225.63757,100.13361 225.63957,100.11141 C225.64357,100.06561 225.64657,100.01951 225.64657,99.97355 C225.64636,99.82041 225.62387,99.66732 225.58027,99.52054 C225.5801,99.52001 225.57975,99.51976 225.57968,99.51854 C225.56518,99.46964 225.54818,99.42144 225.52908,99.37407 C225.52873,99.37348 225.5285,99.37328 225.52708,99.37207 C225.50948,99.32947 225.49018,99.28767 225.46908,99.24678 C225.46608,99.24078 225.46308,99.23548 225.46108,99.22998 C225.43698,99.18428 225.41058,99.13978 225.38228,99.09666 L225.38192,99.09631 C225.31412,98.99321 225.23429,98.89801 225.1446,98.81326 L214.92444,88.59347 L211.73352,85.40256 L211.73505,85.40299 Z M214.92597,93.10613 L220.19798,98.37815 L214.92597,98.37815 L214.92597,93.10613 Z M173.16715,75.96636 C172.75883,75.96636 172.35034,76.12213 172.03882,76.43366 L165.05984,83.41264 L167.31614,85.66893 L171.74391,90.09671 L180.54432,90.09671 L186.67069,96.22307 C186.97457,96.52663 187.4052,96.69914 187.83462,96.68933 C188.25198,96.68947 188.66684,96.51792 188.96224,96.22307 L196.65595,88.52934 L196.65518,88.52734 C197.21891,87.93148 197.20477,86.88393 196.62518,86.30351 C196.04467,85.72418 194.9974,85.71024 194.40167,86.27391 L194.39967,86.27191 L194.37187,86.29971 C194.37092,86.30066 194.36887,86.30171 194.36787,86.30271 C194.36587,86.30471 194.36487,86.30571 194.36287,86.30771 L187.81561,92.85495 L182.01975,87.0591 L182.02375,84.12611 L174.33002,76.43237 C174.02923,76.13149 173.60408,75.95892 173.17868,75.96507 C173.17668,75.96518 173.17568,75.96529 173.17368,75.96543 L173.17331,75.96543 C173.17131,75.96541 173.16831,75.96507 173.16731,75.96507 L173.16715,75.96636 Z M173.18465,79.80048 L176.61394,83.22975 L169.64509,83.34006 L173.18465,79.80048 Z M186.40481,82.23231 C184.85099,82.23229 183.43723,83.64605 183.43726,85.19987 C183.43723,86.75369 184.85099,88.16745 186.40481,88.16744 C187.95863,88.16746 189.3724,86.75369 189.37237,85.19987 C189.3724,83.64605 187.95863,82.23228 186.40481,82.23231 Z M163.90925,85.40299 L163.90925,89.91557 L163.90925,99.50402 L155.04672,108.36656 C154.45602,108.95726 154.45602,110.03216 155.04672,110.62286 C155.63742,111.21355 156.7123,111.21355 157.303,110.62286 L166.29292,101.63293 L167.10016,101.63293 L167.10016,101.56913 L176.19618,101.56913 C176.57041,101.57613 176.94591,101.45208 177.24947,101.19709 C177.25747,101.19009 177.26537,101.18289 177.27327,101.17579 C177.30027,101.15219 177.32777,101.12919 177.35357,101.10349 C177.35957,101.09749 177.36357,101.09259 177.36787,101.08739 C177.37387,101.08139 177.37867,101.07579 177.38397,101.06989 C177.41607,101.03599 177.44717,101.00109 177.47577,100.9652 C177.47877,100.9602 177.48277,100.9562 177.48577,100.9515 C177.51447,100.9146 177.54177,100.8771 177.56667,100.83842 C177.57067,100.83142 177.57567,100.82422 177.57917,100.81712 C177.60367,100.77782 177.62707,100.73812 177.64797,100.69707 C177.64997,100.69207 177.65197,100.68707 177.65397,100.68267 C177.67407,100.64197 177.69277,100.60097 177.70907,100.55911 C177.71507,100.54301 177.72077,100.52691 177.72627,100.51061 C177.73787,100.47791 177.74967,100.44531 177.75907,100.41221 C177.76507,100.38921 177.77077,100.36621 177.77577,100.34301 C177.78177,100.31681 177.78827,100.29091 177.79327,100.26451 C177.79827,100.23571 177.80227,100.20691 177.80577,100.17801 C177.80877,100.15571 177.81177,100.13361 177.81377,100.11141 C177.81777,100.06561 177.82077,100.01951 177.82077,99.97355 C177.82055,99.82041 177.79807,99.66732 177.75447,99.52054 C177.7543,99.52001 177.75394,99.51976 177.75388,99.51854 C177.73938,99.46964 177.72248,99.42144 177.70338,99.37407 C177.70303,99.37348 177.70279,99.37328 177.70259,99.37207 C177.68509,99.32947 177.66579,99.28767 177.64469,99.24678 C177.64169,99.24078 177.63869,99.23548 177.63669,99.22998 C177.61259,99.18428 177.58619,99.13978 177.55779,99.09666 L177.55743,99.09631 C177.48963,98.99321 177.40981,98.89801 177.32011,98.81326 L167.09995,88.59347 L163.90904,85.40256 L163.90925,85.40299 Z M167.10016,93.10613 L172.37217,98.37815 L167.10016,98.37815 L167.10016,93.10613 Z M125.34128,75.96636 C124.93298,75.96636 124.52449,76.12213 124.21296,76.43366 L117.23399,83.41264 L119.49028,85.66893 L123.91806,90.09671 L132.71848,90.09671 L138.84484,96.22307 C139.14871,96.52663 139.57934,96.69913 140.00875,96.68933 C140.42612,96.68948 140.84099,96.51793 141.13638,96.22307 L148.83011,88.52934 L148.82811,88.52734 C149.39184,87.93148 149.3777,86.88393 148.79811,86.30351 C148.21762,85.72419 147.17036,85.71025 146.57462,86.27391 L146.57262,86.27191 L146.54482,86.29971 C146.54387,86.30066 146.54182,86.30171 146.54082,86.30271 C146.53882,86.30471 146.53782,86.30571 146.53582,86.30771 L139.98855,92.85495 L134.19268,87.0591 L134.19668,84.12611 L126.50296,76.43237 C126.20217,76.13149 125.777,75.95892 125.3516,75.96507 C125.3496,75.96518 125.3486,75.96529 125.3466,75.96543 L125.34624,75.96543 C125.34424,75.96541 125.34124,75.96507 125.34024,75.96507 L125.34128,75.96636 Z M125.35878,79.80048 L128.78806,83.22975 L121.81922,83.34006 L125.35878,79.80048 Z M138.57894,82.23231 C137.02513,82.23229 135.61137,83.64605 135.6114,85.19987 C135.61137,86.75369 137.02513,88.16745 138.57894,88.16744 C140.13276,88.16746 141.54653,86.75369 141.5465,85.19987 C141.54653,83.64605 140.13276,82.23228 138.57894,82.23231 Z M116.08339,85.40299 L116.08339,89.91557 L116.08339,99.50402 L107.22085,108.36656 C106.63015,108.95726 106.63015,110.03216 107.22085,110.62286 C107.81154,111.21355 108.88644,111.21355 109.47714,110.62286 L118.46706,101.63293 L119.2743,101.63293 L119.2743,101.56913 L128.37032,101.56913 C128.74455,101.57613 129.12004,101.45208 129.4236,101.19709 C129.4316,101.19009 129.4395,101.18289 129.4474,101.17579 C129.4744,101.15219 129.5019,101.12919 129.5277,101.10349 C129.5337,101.09749 129.5367,101.09259 129.542,101.08739 C129.548,101.08139 129.5528,101.07579 129.5581,101.06989 C129.5902,101.03599 129.6213,101.00109 129.6499,100.9652 C129.6529,100.9602 129.6569,100.9562 129.6599,100.9515 C129.6886,100.9146 129.7159,100.8771 129.7408,100.83842 C129.7448,100.83142 129.7498,100.82422 129.7533,100.81712 C129.7778,100.77782 129.8013,100.73812 129.8221,100.69707 C129.8241,100.69207 129.8261,100.68707 129.8281,100.68267 C129.8482,100.64197 129.8668,100.60097 129.8833,100.55911 C129.8893,100.54301 129.895,100.52691 129.9005,100.51061 C129.9121,100.47791 129.9239,100.44531 129.9333,100.41221 C129.9393,100.38921 129.945,100.36621 129.95,100.34301 C129.956,100.31681 129.9625,100.29091 129.9675,100.26451 C129.9725,100.23571 129.9765,100.20691 129.98,100.17801 C129.983,100.15571 129.986,100.13361 129.988,100.11141 C129.992,100.06561 129.995,100.01951 129.995,99.97355 C129.99478,99.82041 129.9723,99.66732 129.9287,99.52054 C129.92852,99.52001 129.92816,99.51976 129.92812,99.51854 C129.91362,99.46964 129.89662,99.42144 129.87752,99.37407 C129.87716,99.37348 129.87693,99.37328 129.87674,99.37207 C129.85924,99.32947 129.83994,99.28767 129.81884,99.24678 C129.81584,99.24078 129.81284,99.23548 129.81084,99.22998 C129.78674,99.18428 129.76044,99.13978 129.73204,99.09666 L129.73168,99.09631 C129.66388,98.99321 129.58406,98.89801 129.49437,98.81326 L119.27422,88.59347 L116.08329,85.40256 L116.08339,85.40299 Z M119.2743,93.10613 L124.54632,98.37815 L119.2743,98.37815 L119.2743,93.10613 Z M29.68933,75.96636 C29.281014,75.96636 28.872533,76.12213 28.561003,76.43366 L21.582026,83.41264 L23.838326,85.66893 L28.266096,90.09671 L37.066507,90.09671 L43.19288,96.22307 C43.49676,96.52663 43.92738,96.69913 44.3568,96.68933 C44.77416,96.68947 45.18903,96.51792 45.48442,96.22307 L53.17814,88.52934 L53.17614,88.52734 C53.73988,87.93149 53.72577,86.88394 53.14614,86.30351 C52.56565,85.72419 51.51838,85.71024 50.92265,86.27391 L50.92186,86.27191 L50.89406,86.29971 C50.89311,86.30066 50.89106,86.30171 50.89006,86.30271 C50.88806,86.30471 50.88706,86.30571 50.88506,86.30771 L44.33781,92.85495 L38.541944,87.0591 L38.545844,84.12611 L30.85211,76.43237 C30.551323,76.13149 30.12616,75.95892 29.700757,75.96507 C29.699157,75.96518 29.697657,75.96529 29.695957,75.96543 L29.695597,75.96543 C29.693197,75.96541 29.690897,75.96507 29.689297,75.96507 L29.68933,75.96636 Z M29.70679,79.80048 L33.136074,83.22975 L26.16722,83.34006 L29.70679,79.80048 Z M42.92695,82.23231 C41.37313,82.23229 39.95937,83.64605 39.9594,85.19987 C39.95937,86.75369 41.37313,88.16745 42.92695,88.16744 C44.48076,88.16746 45.89453,86.75369 45.8945,85.19987 C45.89453,83.64605 44.48076,82.23228 42.92695,82.23231 Z M20.431387,85.40299 L20.431387,89.91557 L20.431387,99.50402 L11.568855,108.36656 C10.978155,108.95726 10.978155,110.03216 11.568855,110.62286 C12.159549,111.21355 13.234446,111.21355 13.82514,110.62286 L22.815061,101.63293 L23.622299,101.63293 L23.622299,101.56913 L32.718315,101.56913 C33.092551,101.57613 33.468046,101.45208 33.771605,101.19709 C33.779605,101.19009 33.787485,101.18289 33.795325,101.17579 C33.822335,101.15219 33.849905,101.12919 33.875585,101.10349 C33.881085,101.09749 33.884885,101.09259 33.889915,101.08739 C33.895315,101.08139 33.900665,101.07579 33.905965,101.06989 C33.938065,101.03599 33.969145,101.00109 33.997755,100.9652 C34.001055,100.9602 34.004355,100.9562 34.007555,100.9515 C34.036205,100.9146 34.063615,100.8771 34.088525,100.83842 C34.092725,100.83142 34.097025,100.82422 34.101055,100.81712 C34.125565,100.77782 34.149045,100.73812 34.169795,100.69707 C34.171995,100.69207 34.173995,100.68707 34.176095,100.68267 C34.196215,100.64197 34.214855,100.60097 34.231205,100.55911 C34.237205,100.54301 34.242885,100.52691 34.248345,100.51061 C34.259935,100.47791 34.271675,100.44531 34.281145,100.41221 C34.287245,100.38921 34.292785,100.36621 34.297825,100.34301 C34.304125,100.31681 34.310435,100.29091 34.315275,100.26451 C34.320275,100.23571 34.324375,100.20691 34.327805,100.17801 C34.330905,100.15571 34.334105,100.13361 34.335805,100.11141 C34.340105,100.06561 34.342405,100.01951 34.342805,99.97355 C34.342597,99.82041 34.320185,99.66732 34.276495,99.52054 C34.276322,99.52001 34.275962,99.51976 34.275907,99.51854 C34.261377,99.46964 34.244487,99.42144 34.225327,99.37407 C34.224974,99.37348 34.224738,99.37328 34.224544,99.37207 C34.207044,99.32947 34.187714,99.28767 34.166604,99.24678 C34.163504,99.24078 34.161104,99.23548 34.158604,99.22998 C34.134494,99.18428 34.108164,99.13978 34.079734,99.09666 L34.079374,99.09631 C34.011554,98.99321 33.931722,98.898 33.842008,98.81325 L23.621854,88.59345 L20.430933,85.40254 L20.431387,85.40299 Z M23.622299,93.10613 L28.894315,98.37815 L23.622299,98.37815 L23.622299,93.10613 Z"/>
    <path fill="#FFF" d="M96.3609346,90.283991 C96.3609346,102.803861 86.2115692,112.953215 73.6917103,112.953215 C61.1718408,112.953215 51.0224861,102.803861 51.0224861,90.283991 C51.0224861,77.7641322 61.1718408,67.6147668 73.6917103,67.6147668 C86.2115692,67.6147668 96.3609346,77.7641322 96.3609346,90.283991 Z"/>
    <path fill="#E61E00" fill-rule="nonzero" d="M73.14891 73.900646C72.7406 73.900646 72.33212 74.056427 72.02058 74.367956L65.04162 81.346934 67.2979 83.603226 71.72568 88.031 80.52609 88.031 86.65245 94.15737C86.95634 94.46092 87.38696 94.63343 87.81637 94.62363 88.23375 94.62377 88.6486 94.45222 88.944 94.15737L96.63772 86.463638 96.63572 86.462038C97.19945 85.866181 97.18531 84.818633 96.60572 84.238213 96.02523 83.658892 94.97797 83.644917 94.38224 84.208543L94.38024 84.206943 94.35244 84.234813C94.35149 84.235813 94.34944 84.236913 94.34844 84.237913 94.34644 84.239413 94.34544 84.241013 94.34344 84.242713L87.79618 90.78997 82.00031 84.994112 82.00431 82.061113 74.31058 74.367379C74.0098 74.066492 73.58462 73.893926 73.15922 73.900068 73.15722 73.900186 73.15622 73.900306 73.15422 73.900428L73.15385 73.900428C73.15185 73.900413 73.14885 73.900068 73.14785 73.900068L73.14891 73.900646zM73.16641 77.734771L76.59569 81.164057 69.62684 81.274348 73.16641 77.734771zM86.38657 80.166613C84.83275 80.166585 83.41899 81.580353 83.41901 83.134171 83.41899 84.687989 84.83275 86.101756 86.38657 86.101727 87.94039 86.10175 89.35415 84.687985 89.35412 83.134171 89.35415 81.580356 87.94039 80.16659 86.38657 80.166613zM63.89101 83.337287L63.89101 87.84987 63.89101 97.43832 55.028474 106.30086C54.437774 106.89156 54.437774 107.96646 55.028474 108.55716 55.619165 109.14786 56.694071 109.14786 57.284762 108.55716L66.27469 99.56723 67.08192 99.56723 67.08192 99.50333 76.17794 99.50333C76.55218 99.51033 76.92767 99.38628 77.23122 99.1313 77.23922 99.1243 77.24712 99.1172 77.25492 99.11 77.28192 99.0864 77.30942 99.0635 77.33522 99.0377 77.34122 99.0317 77.34522 99.0268 77.34952 99.0216 77.35552 99.0156 77.36022 99.01 77.36562 99.0042 77.39772 98.9702 77.42882 98.9355 77.45742 98.8995 77.46042 98.8945 77.46442 98.8905 77.46742 98.8859 77.49612 98.849 77.52342 98.8115 77.54832 98.77282 77.55232 98.76582 77.55732 98.75862 77.56082 98.75152 77.58532 98.71212 77.60882 98.67242 77.62962 98.63146 77.63162 98.62646 77.63362 98.62146 77.63562 98.61716 77.65572 98.57656 77.67432 98.53546 77.69072 98.49361 77.69672 98.47751 77.70242 98.46141 77.70792 98.44511 77.71952 98.41251 77.73132 98.37991 77.74072 98.34671 77.74672 98.32381 77.75242 98.30071 77.75742 98.27761 77.76342 98.25141 77.77002 98.22551 77.77492 98.19911 77.77992 98.17041 77.78492 98.14151 77.78742 98.11251 77.79042 98.09031 77.79342 98.06811 77.79542 98.04591 77.80042 98.00011 77.80242 97.95411 77.80242 97.90806 77.80221 97.75492 77.77982 97.60182 77.73612 97.45505 77.73595 97.45452 77.73559 97.45427 77.73553 97.45305 77.72103 97.40415 77.70403 97.35585 77.68493 97.30856 77.68457 97.30797 77.68435 97.30778 77.68293 97.30656 77.66543 97.26396 77.64613 97.22216 77.62503 97.18127 77.62203 97.17627 77.61903 97.16997 77.61703 97.16447 77.59293 97.11877 77.56663 97.07427 77.53813 97.03115L77.53778 97.0308C77.47028 96.92774 77.39075 96.83255 77.30137 96.74775L67.08122 86.527991 63.8903 83.33707 63.89101 83.337287zM67.08192 91.04044L72.35394 96.31245 67.08192 96.31245 67.08192 91.04044zM162.87074 120.97617C162.46243 120.97617 162.05395 121.13195 161.74242 121.44348L154.76344 128.42245 157.01973 130.67876 161.44751 135.10653 170.24792 135.10653 176.37428 141.2329C176.67816 141.53645 177.10879 141.70896 177.5382 141.69917 177.95558 141.6993 178.37044 141.52776 178.66584 141.2329L186.35956 133.53916 186.35756 133.53838C186.9213 132.94253 186.90716 131.89497 186.32756 131.31455 185.74707 130.73523 184.69981 130.72126 184.10408 131.28495L184.10208 131.28295 184.07428 131.31075C184.07333 131.3117 184.07128 131.31275 184.07028 131.31375 184.06828 131.31575 184.06728 131.31675 184.06528 131.31875L177.51802 137.86601 171.72214 132.07016 171.72614 129.13716 164.03241 121.44342C163.73163 121.14253 163.30646 120.96997 162.88106 120.9761 162.87906 120.97623 162.87806 120.97634 162.87606 120.97647L162.87571 120.97647C162.87371 120.97646 162.87071 120.9761 162.86971 120.9761L162.87074 120.97617zM162.88824 124.8103L166.31752 128.23959 159.34868 128.34987 162.88824 124.8103zM176.1084 127.24214C174.55459 127.24212 173.14083 128.65588 173.14085 130.20969 173.14083 131.7635 174.55459 133.17727 176.1084 133.17725 177.66222 133.17728 179.07599 131.76351 179.07596 130.20969 179.07599 128.65588 177.66222 127.24211 176.1084 127.24214zM153.61284 130.41281L153.61284 134.92539 153.61284 144.51382 144.7503 153.37638C144.15959 153.96708 144.15959 155.04201 144.7503 155.63271 145.341 156.2234 146.41589 156.2234 147.00659 155.63271L155.99652 146.64276 156.80375 146.64276 156.80375 146.57896 165.89976 146.57896C166.27401 146.58596 166.64949 146.46192 166.95306 146.20688 166.96106 146.19988 166.96896 146.19278 166.97686 146.18568 167.00386 146.16208 167.03136 146.13918 167.05716 146.11348 167.06316 146.10648 167.06616 146.10228 167.07146 146.09758 167.07746 146.09158 167.08226 146.08578 167.08756 146.07988 167.11966 146.04578 167.15076 146.01108 167.17936 145.97515 167.18236 145.97015 167.18636 145.96615 167.18936 145.96155 167.21806 145.92455 167.24536 145.88715 167.27026 145.84851 167.27426 145.84151 167.27926 145.83441 167.28276 145.82731 167.30726 145.78791 167.33076 145.74821 167.35156 145.70726 167.35356 145.70226 167.35556 145.69726 167.35756 145.69316 167.37766 145.65246 167.39636 145.61146 167.41266 145.56959 167.41866 145.55359 167.42436 145.53759 167.42986 145.52129 167.44146 145.48899 167.45326 145.45599 167.46266 145.42279 167.46866 145.39989 167.47436 145.37689 167.47946 145.35369 167.48546 145.32779 167.49206 145.30139 167.49696 145.27509 167.50196 145.24639 167.50596 145.21749 167.50946 145.18859 167.51246 145.16619 167.51546 145.14439 167.51746 145.12199 167.52146 145.07619 167.52446 145.03009 167.52446 144.98412 167.52425 144.83098 167.50176 144.67789 167.45816 144.53113 167.45798 144.5306 167.45763 144.53113 167.45757 144.53113 167.44307 144.48223 167.42617 144.43393 167.40707 144.3866 167.40672 144.38602 167.40649 144.3866 167.40507 144.3866 167.38747 144.344 167.36817 144.3022 167.34717 144.26133 167.34417 144.25433 167.34117 144.25013 167.33917 144.24493 167.31507 144.19923 167.28877 144.15483 167.26027 144.11166L167.25991 144.11131C167.19211 144.0082 167.11229 143.913 167.02258 143.82825L156.80268 133.60843 153.61177 130.41751 153.61284 130.41281zM156.80375 138.11596L162.07577 143.38796 156.80375 143.38796 156.80375 138.11596zM115.04487 120.97617C114.63656 120.97617 114.22807 121.13195 113.91653 121.44348L106.93757 128.42245 109.19386 130.67876 113.62163 135.10653 122.42205 135.10653 128.54841 141.2329C128.85229 141.53645 129.28292 141.70896 129.71233 141.69917 130.1297 141.6993 130.54455 141.52775 130.83995 141.2329L138.53367 133.53916 138.53167 133.53838C139.0954 132.94253 139.08127 131.89497 138.50167 131.31455 137.9212 130.73523 136.87393 130.72126 136.2782 131.28495L136.2762 131.28295 136.2484 131.31075C136.24745 131.3117 136.2454 131.31275 136.2444 131.31375 136.2424 131.31575 136.2414 131.31675 136.2394 131.31875L129.69215 137.86601 123.89627 132.07016 123.90027 129.13716 116.20655 121.44342C115.90576 121.14253 115.48059 120.96997 115.05518 120.9761 115.05318 120.97623 115.05218 120.97634 115.05018 120.97647L115.04983 120.97647C115.04783 120.97646 115.04483 120.9761 115.04383 120.9761L115.04487 120.97617zM115.06237 124.8103L118.49166 128.23959 111.52281 128.34987 115.06237 124.8103zM128.28254 127.24214C126.72872 127.24211 125.31496 128.65588 125.31499 130.20969 125.31496 131.76351 126.72872 133.17727 128.28254 133.17725 129.83635 133.17728 131.25012 131.76351 131.25009 130.20969 131.25012 128.65588 129.83635 127.24211 128.28254 127.24214zM105.78698 130.41281L105.78698 134.92539 105.78698 144.51382 96.92444 153.37638C96.33372 153.96708 96.33372 155.04201 96.92444 155.63271 97.51513 156.2234 98.59003 156.2234 99.18073 155.63271L108.17065 146.64276 108.97788 146.64276 108.97788 146.57896 118.07391 146.57896C118.44814 146.58596 118.82363 146.46192 119.12719 146.20688 119.13519 146.19988 119.14309 146.19278 119.15099 146.18568 119.17799 146.16208 119.20549 146.13918 119.23129 146.11348 119.23729 146.10648 119.24029 146.10228 119.24569 146.09758 119.25169 146.09158 119.25649 146.08578 119.26179 146.07988 119.29389 146.04578 119.32499 146.01108 119.35359 145.97515 119.35659 145.97015 119.36059 145.96615 119.36359 145.96155 119.39229 145.92455 119.41959 145.88715 119.44449 145.84851 119.44849 145.84151 119.45349 145.83441 119.45699 145.82731 119.48149 145.78791 119.50499 145.74821 119.52579 145.70726 119.52779 145.70226 119.52979 145.69726 119.53179 145.69316 119.55189 145.65246 119.57059 145.61146 119.58699 145.56959 119.59299 145.55359 119.59869 145.53759 119.60419 145.52129 119.61579 145.48899 119.62759 145.45599 119.63699 145.42279 119.64299 145.39989 119.64869 145.37689 119.65369 145.35369 119.65969 145.32779 119.66619 145.30139 119.67119 145.27509 119.67619 145.24639 119.68019 145.21749 119.68369 145.18859 119.68669 145.16619 119.68969 145.14439 119.69169 145.12199 119.69569 145.07619 119.69869 145.03009 119.69869 144.98412 119.69848 144.83098 119.67599 144.67789 119.63239 144.53113 119.63221 144.5306 119.63185 144.53113 119.63181 144.53113 119.61731 144.48223 119.60041 144.43393 119.58131 144.3866 119.58094 144.38602 119.58073 144.3866 119.58053 144.3866 119.56303 144.344 119.54373 144.3022 119.52263 144.26133 119.51963 144.25433 119.51663 144.25013 119.51463 144.24493 119.49053 144.19923 119.46423 144.15483 119.43583 144.11166L119.43548 144.11131C119.36768 144.0082 119.28785 143.913 119.19816 143.82825L108.97824 133.60843 105.78732 130.41751 105.78698 130.41281zM108.97788 138.11596L114.24991 143.38796 108.97788 143.38796 108.97788 138.11596zM67.219 120.97617C66.81068 120.97617 66.40221 121.13195 66.09067 121.44348L59.1117 128.42245 61.368 130.67876 65.79577 135.10653 74.59618 135.10653 80.72255 141.2329C81.02643 141.53645 81.45705 141.70896 81.88647 141.69917 82.30383 141.6993 82.71869 141.52775 83.01409 141.2329L90.70781 133.53916 90.70703 133.53838C91.27077 132.94253 91.25662 131.89497 90.67703 131.31455 90.09655 130.73522 89.04928 130.72125 88.45353 131.28495L88.45153 131.28295 88.42373 131.31075C88.42278 131.3117 88.42073 131.31275 88.41973 131.31375 88.41773 131.31575 88.41673 131.31675 88.41473 131.31875L81.86747 137.86601 76.07161 132.07016 76.07561 129.13716 68.38187 121.44342C68.08108 121.14253 67.65592 120.96997 67.23052 120.9761 67.22852 120.97623 67.22752 120.97634 67.22552 120.97647L67.22516 120.97647C67.22316 120.97646 67.22016 120.9761 67.21916 120.9761L67.219 120.97617zM67.2365 124.8103L70.66578 128.23959 63.69692 128.34987 67.2365 124.8103zM80.45665 127.24214C78.90283 127.24211 77.48907 128.65588 77.4891 130.20969 77.48907 131.76351 78.90283 133.17727 80.45665 133.17725 82.01047 133.17727 83.42423 131.76351 83.4242 130.20969 83.42423 128.65588 82.01047 127.24211 80.45665 127.24214zM57.961088 130.41281L57.961088 134.92539 57.961088 144.51382 49.098561 153.37638C48.507844 153.96708 48.507844 155.04201 49.098561 155.63271 49.689255 156.2234 50.764154 156.2234 51.354845 155.63271L60.34477 146.64276 61.152 146.64276 61.152 146.57896 70.24803 146.57896C70.62226 146.58596 70.99776 146.46192 71.30131 146.20688 71.30931 146.19988 71.31721 146.19278 71.32511 146.18568 71.35211 146.16208 71.37961 146.13918 71.40541 146.11348 71.41141 146.10648 71.41441 146.10228 71.41971 146.09758 71.42571 146.09158 71.43051 146.08578 71.43581 146.07988 71.46791 146.04578 71.49901 146.01108 71.52771 145.97515 71.53071 145.97015 71.53471 145.96615 71.53771 145.96155 71.56641 145.92455 71.59371 145.88715 71.61861 145.84851 71.62261 145.84151 71.62761 145.83441 71.63111 145.82731 71.65561 145.78791 71.67901 145.74821 71.69991 145.70726 71.70191 145.70226 71.70491 145.69726 71.70691 145.69316 71.72701 145.65246 71.74561 145.61146 71.76201 145.56959 71.76801 145.55359 71.77371 145.53759 71.77921 145.52129 71.79081 145.48899 71.80261 145.45599 71.81201 145.42279 71.81801 145.39989 71.82371 145.37689 71.82871 145.35369 71.83471 145.32779 71.84131 145.30139 71.84621 145.27509 71.85121 145.24639 71.85521 145.21749 71.85871 145.18859 71.86171 145.16619 71.86471 145.14439 71.86671 145.12199 71.87071 145.07619 71.87371 145.03009 71.87371 144.98412 71.87349 144.83098 71.85101 144.67789 71.80741 144.53113 71.80723 144.5306 71.80687 144.53113 71.80682 144.53113 71.79232 144.48223 71.77532 144.43393 71.75632 144.3866 71.75597 144.38602 71.75573 144.3866 71.75554 144.3866 71.73804 144.344 71.71874 144.3022 71.69764 144.26133 71.69464 144.25433 71.69164 144.25013 71.68964 144.24493 71.66554 144.19923 71.63924 144.15483 71.61074 144.11166L71.61038 144.11131C71.54258 144.00819 71.46272 143.91299 71.37301 143.82824L61.15331 133.60843 57.962387 130.4175 57.961088 130.41281zM61.152 138.11596L66.42402 143.38796 61.152 143.38796 61.152 138.11596zM19.393131 120.97617C18.984823 120.97617 18.576335 121.13195 18.264805 121.44348L11.285835 128.42245 13.542128 130.67876 17.969905 135.10653 26.770316 135.10653 32.896679 141.2329C33.200561 141.53645 33.631181 141.70896 34.060596 141.69917 34.477967 141.6993 34.892828 141.52775 35.188219 141.2329L42.881945 133.53916 42.881162 133.53838C43.444909 132.94254 43.430784 131.89498 42.851182 131.31455 42.270697 130.73522 41.223432 130.72125 40.627695 131.28495L40.626912 131.28295 40.599042 131.31075C40.597842 131.3117 40.596342 131.31275 40.595142 131.31375 40.593542 131.31575 40.592042 131.31675 40.590342 131.31875L34.043084 137.86601 28.247214 132.07016 28.251114 129.13716 20.55738 121.44342C20.256594 121.14253 19.831431 120.96997 19.406028 120.9761 19.404428 120.97623 19.402928 120.97634 19.401228 120.97647L19.400868 120.97647C19.398468 120.97646 19.396168 120.9761 19.394568 120.9761L19.393131 120.97617zM19.410581 124.8103L22.839866 128.23959 15.871019 128.34987 19.410581 124.8103zM32.630746 127.24214C31.076928 127.24211 29.663161 128.65588 29.663188 130.20969 29.663161 131.76351 31.076928 133.17728 32.630746 133.17725 34.184561 133.17728 35.598329 131.76351 35.598302 130.20969 35.598329 128.65588 34.184562 127.24211 32.630746 127.24214zM10.135186 130.41281L10.135186 134.92539 10.135186 144.51382 1.272648 153.37638C.681931 153.96708.681931 155.04201 1.272648 155.63271 1.863342 156.2234 2.938247 156.2234 3.528941 155.63271L12.518862 146.64276 13.326099 146.64276 13.326099 146.57896 22.422115 146.57896C22.79635 146.58596 23.171838 146.46192 23.475397 146.20688 23.483397 146.19988 23.491277 146.19278 23.499127 146.18568 23.526137 146.16208 23.553707 146.13918 23.579397 146.11348 23.584897 146.10648 23.588697 146.10228 23.593727 146.09758 23.599127 146.09158 23.604467 146.08578 23.609777 146.07988 23.641877 146.04578 23.672957 146.01108 23.701567 145.97515 23.704867 145.97015 23.708167 145.96615 23.711367 145.96155 23.740017 145.92455 23.767427 145.88715 23.792337 145.84851 23.796537 145.84151 23.800837 145.83441 23.804867 145.82731 23.829377 145.78791 23.852857 145.74821 23.873607 145.70726 23.875807 145.70226 23.877807 145.69726 23.879907 145.69316 23.900027 145.65246 23.918577 145.61146 23.935017 145.56959 23.941017 145.55359 23.946697 145.53759 23.952157 145.52129 23.963747 145.48899 23.975487 145.45599 23.984957 145.42279 23.991057 145.39989 23.996597 145.37689 24.001637 145.35369 24.007937 145.32779 24.014247 145.30139 24.019087 145.27509 24.024087 145.24639 24.028187 145.21749 24.031617 145.18859 24.034717 145.16619 24.037917 145.14439 24.039617 145.12199 24.043917 145.07619 24.046217 145.03009 24.046617 144.98412 24.046406 144.83098 24.023997 144.67789 23.980307 144.53113 23.980127 144.5306 23.979767 144.53113 23.979711 144.53113 23.965181 144.48223 23.948291 144.43393 23.929131 144.3866 23.928771 144.38602 23.928543 144.3866 23.927531 144.3866 23.910071 144.344 23.890761 144.3022 23.869671 144.26133 23.866571 144.25433 23.864171 144.25013 23.861671 144.24493 23.837551 144.19923 23.811221 144.15483 23.782791 144.11166L23.782439 144.11131C23.714619 144.00819 23.634787 143.91299 23.545072 143.82824L13.325019 133.60843 10.134097 130.4175 10.135186 130.41281zM13.326099 138.11596L18.598114 143.38796 13.326099 143.38796 13.326099 138.11596zM210.69663 26.825158C210.28831 26.825158 209.87984 26.980946 209.56831 27.292475L202.58934 34.271452 204.84563 36.527745 209.2734 40.955523 218.07382 40.955523 224.20019 47.081884C224.50407 47.385441 224.93469 47.557947 225.3641 47.548152 225.78147 47.548285 226.19633 47.37674 226.49172 47.081884L234.18545 39.38815 234.18467 39.38655C234.7484 38.790692 234.73427 37.743138 234.15467 37.162717 233.57419 36.583391 232.52692 36.569417 231.93118 37.133047L231.92918 37.132263 231.90138 37.160133C231.90043 37.161133 231.89838 37.162233 231.89738 37.163233 231.89538 37.164833 231.89438 37.166333 231.89238 37.168033L225.34512 43.715292 219.54927 37.919432 219.55327 34.986433 211.85953 27.292699C211.55874 26.991812 211.13358 26.819244 210.70818 26.82538 210.70618 26.825498 210.70518 26.825618 210.70318 26.82574L210.70282 26.82574C210.70082 26.825733 210.69782 26.82538 210.69682 26.82538L210.69663 26.825158zM210.71413 30.65929L214.14342 34.088576 207.17457 34.198859 210.71413 30.65929zM223.93429 33.091133C222.38047 33.091109 220.9667 34.504875 220.96674 36.058689 220.9667 37.612504 222.38047 39.02627 223.93429 39.026246 225.48811 39.026275 226.90188 37.612507 226.90185 36.058689 226.90188 34.504872 225.48811 33.091104 223.93429 33.091133zM201.43873 36.261806L201.43873 40.774383 201.43873 50.362842 192.5762 59.225379C191.9855 59.816075 191.9855 60.890977 192.5762 61.481673 193.16689 62.072366 194.24179 62.072366 194.83248 61.481673L203.82241 52.49175 204.62964 52.49175 204.62964 52.42786 213.72566 52.42786C214.0999 52.43486 214.47539 52.310804 214.77895 52.055817 214.78695 52.048817 214.79485 52.041697 214.80275 52.034527 214.82975 52.010957 214.85725 51.988017 214.88305 51.962257 214.88905 51.956757 214.89205 51.951377 214.89745 51.946197 214.90345 51.940397 214.90825 51.934597 214.91355 51.928747 214.94565 51.894767 214.97675 51.860007 215.00535 51.824045 215.00835 51.819445 215.01235 51.815045 215.01535 51.810425 215.04405 51.773555 215.07145 51.736045 215.09625 51.697354 215.10025 51.690354 215.10525 51.683184 215.10875 51.676064 215.13325 51.636604 215.15675 51.596954 215.17755 51.556 215.17955 51.5512 215.18255 51.5465 215.18455 51.54167 215.20465 51.50104 215.22325 51.45993 215.23965 51.418123 215.24565 51.402063 215.25135 51.385913 215.25685 51.369663 215.26845 51.337023 215.28025 51.304443 215.28965 51.271243 215.29565 51.248333 215.30135 51.225273 215.30635 51.202113 215.31235 51.175883 215.31885 51.149963 215.32385 51.123583 215.32885 51.094853 215.33285 51.065983 215.33635 51.037023 215.33935 51.014793 215.34235 50.992633 215.34435 50.970403 215.34835 50.924583 215.35135 50.878573 215.35135 50.832551 215.35113 50.679411 215.32865 50.526319 215.28505 50.379545 215.28488 50.379005 215.28451 50.377945 215.28446 50.377945 215.26996 50.329015 215.25296 50.280775 215.23396 50.233463 215.2336 50.232875 215.23337 50.231863 215.23196 50.231063 215.21436 50.188483 215.19506 50.146663 215.17396 50.105769 215.17096 50.100269 215.16796 50.094489 215.16596 50.089009 215.14186 50.043329 215.11546 49.998819 215.08716 49.955691L215.08679 49.955338C215.01899 49.852238 214.93917 49.757046 214.84948 49.6723L204.62933 39.452505 201.4384 36.261585 201.43873 36.261806zM204.62964 43.964958L209.90167 49.236967 204.62964 49.236967 204.62964 43.964958zM162.87077 26.825158C162.46246 26.825158 162.05397 26.980946 161.74245 27.292475L154.76347 34.271452 157.01976 36.527745 161.44754 40.955523 170.24795 40.955523 176.37431 47.081884C176.67819 47.385441 177.10881 47.557947 177.53823 47.548152 177.95561 47.548287 178.37047 47.376742 178.66586 47.081884L186.35959 39.38815 186.35759 39.38655C186.92133 38.790692 186.90719 37.743138 186.32759 37.162717 185.7471 36.583398 184.69984 36.569422 184.10411 37.133047L184.10211 37.132263 184.07431 37.160133C184.07336 37.161133 184.07131 37.162233 184.07031 37.163233 184.06831 37.164833 184.06731 37.166333 184.06531 37.168033L177.51805 43.715292 171.72217 37.919432 171.72617 34.986433 164.03244 27.292699C163.73166 26.99181 163.30649 26.819241 162.88109 26.82538 162.87909 26.825498 162.87809 26.825618 162.87609 26.82574L162.87574 26.82574C162.87374 26.825733 162.87074 26.82538 162.86974 26.82538L162.87077 26.825158zM162.88827 30.65929L166.31755 34.088576 159.34871 34.198859 162.88827 30.65929zM176.10843 33.091133C174.55462 33.091115 173.14086 34.504879 173.14088 36.058689 173.14086 37.612501 174.55462 39.026264 176.10843 39.026246 177.66225 39.026275 179.07602 37.612507 179.07599 36.058689 179.07602 34.504872 177.66225 33.091104 176.10843 33.091133zM153.61286 36.261806L153.61286 40.774383 153.61286 50.362842 144.75033 59.225379C144.15964 59.816075 144.15964 60.890977 144.75033 61.481673 145.34103 62.072366 146.41592 62.072366 147.00662 61.481673L155.99655 52.49175 156.80378 52.49175 156.80378 52.42786 165.89979 52.42786C166.27404 52.43486 166.64952 52.310804 166.95309 52.055817 166.96109 52.048817 166.96899 52.041697 166.97689 52.034527 167.00389 52.010957 167.03139 51.988017 167.05719 51.962257 167.06319 51.956757 167.06619 51.951377 167.07149 51.946197 167.07749 51.940397 167.08229 51.934597 167.08759 51.928747 167.11969 51.894767 167.15079 51.860007 167.17939 51.824045 167.18239 51.819445 167.18639 51.815045 167.18939 51.810425 167.21809 51.773555 167.24539 51.736045 167.27029 51.697354 167.27429 51.690354 167.27929 51.683184 167.28279 51.676064 167.30729 51.636604 167.33079 51.596954 167.35159 51.556 167.35359 51.5512 167.35559 51.5465 167.35759 51.54167 167.37769 51.50104 167.39639 51.45993 167.41269 51.418123 167.41869 51.402063 167.42439 51.385913 167.42989 51.369663 167.44149 51.337023 167.45329 51.304443 167.46269 51.271243 167.46869 51.248333 167.47439 51.225273 167.47949 51.202113 167.48549 51.175883 167.49209 51.149963 167.49699 51.123583 167.50199 51.094853 167.50599 51.065983 167.50949 51.037023 167.51249 51.014793 167.51549 50.992633 167.51749 50.970403 167.52149 50.924583 167.52449 50.878573 167.52449 50.832551 167.52428 50.679411 167.50179 50.526319 167.45819 50.379545 167.45801 50.379005 167.45766 50.377945 167.4576 50.377945 167.4431 50.329015 167.4262 50.280775 167.4071 50.233463 167.40675 50.232875 167.40651 50.231863 167.4051 50.231063 167.3875 50.188483 167.3682 50.146663 167.3472 50.105769 167.3442 50.100269 167.3412 50.094489 167.3392 50.089009 167.3151 50.043329 167.2888 49.998819 167.2604 49.955691L167.26004 49.955338C167.19224 49.852238 167.11242 49.757045 167.02271 49.6723L156.80257 39.452505 153.61165 36.261585 153.61286 36.261806zM156.80378 43.964958L162.0758 49.236967 156.80378 49.236967 156.80378 43.964958zM105.04494 26.825158C104.63663 26.825158 104.22813 26.98094 103.9166 27.292475L96.93764 34.271452 99.19393 36.527745 103.6217 40.955523 112.42212 40.955523 118.54848 47.081884C118.85236 47.385441 119.28298 47.557947 119.71239 47.548152 120.12977 47.548285 120.54462 47.37674 120.84002 47.081884L128.53374 39.38815 128.53174 39.38655C129.09547 38.790692 129.08134 37.743138 128.50174 37.162717 127.92126 36.583398 126.874 36.569422 126.27827 37.133047L126.27627 37.132263 126.24847 37.160133C126.24752 37.161133 126.24547 37.162233 126.24447 37.163233 126.24247 37.164833 126.24147 37.166333 126.23947 37.168033L119.69222 43.715292 113.89634 37.919432 113.90034 34.986433 106.20661 27.292699C105.90583 26.99181 105.48066 26.819241 105.05525 26.82538 105.05325 26.825498 105.05225 26.825618 105.05025 26.82574L105.0499 26.82574C105.0479 26.825733 105.0449 26.82538 105.0439 26.82538L105.04494 26.825158zM105.06244 30.65929L108.49173 34.088576 101.52288 34.198859 105.06244 30.65929zM118.28261 33.091133C116.72879 33.091109 115.31503 34.504875 115.31505 36.058689 115.31503 37.612504 116.72879 39.02627 118.28261 39.026246 119.83642 39.026275 121.25019 37.612507 121.25016 36.058689 121.25019 34.504872 119.83642 33.091104 118.28261 33.091133zM95.78704 36.261806L95.78704 40.774383 95.78704 50.362842 86.9245 59.225379C86.3338 59.816077 86.3338 60.890977 86.9245 61.481673 87.51519 62.072371 88.5901 62.072372 89.1808 61.481673L98.17072 52.49175 98.97795 52.49175 98.97795 52.42786 108.07397 52.42786C108.44821 52.43486 108.82369 52.310804 109.12726 52.055817 109.13526 52.048817 109.14316 52.041697 109.15106 52.034527 109.17806 52.010957 109.20556 51.988017 109.23136 51.962257 109.23736 51.956757 109.24036 51.951377 109.24566 51.946197 109.25166 51.940397 109.25646 51.934597 109.26176 51.928747 109.29386 51.894767 109.32496 51.860007 109.35356 51.824045 109.35656 51.819445 109.36056 51.815045 109.36356 51.810425 109.39226 51.773555 109.41956 51.736045 109.44446 51.697354 109.44846 51.690354 109.45346 51.683184 109.45696 51.676064 109.48146 51.636604 109.50496 51.596954 109.52576 51.556 109.52776 51.5512 109.52976 51.5465 109.53176 51.54167 109.55186 51.50104 109.57056 51.45993 109.58696 51.418123 109.59296 51.402063 109.59866 51.385913 109.60416 51.369663 109.61576 51.337023 109.62756 51.304443 109.63696 51.271243 109.64296 51.248333 109.64866 51.225273 109.65366 51.202113 109.65966 51.175883 109.66616 51.149963 109.67116 51.123583 109.67616 51.094853 109.68016 51.065983 109.68366 51.037023 109.68666 51.014793 109.68966 50.992633 109.69166 50.970403 109.69566 50.924583 109.69866 50.878573 109.69866 50.832551 109.69844 50.679411 109.67596 50.526319 109.63236 50.379545 109.63218 50.379005 109.63182 50.377945 109.63178 50.377945 109.61728 50.329015 109.60038 50.280775 109.58128 50.233463 109.58091 50.232875 109.58069 50.231863 109.58049 50.231063 109.56299 50.188483 109.54369 50.146663 109.52259 50.105769 109.51959 50.100269 109.51659 50.094489 109.51459 50.089009 109.49049 50.043329 109.46409 49.998819 109.43569 49.955691L109.43534 49.955338C109.36754 49.852238 109.28771 49.757046 109.19802 49.6723L98.97787 39.452505 95.78695 36.261585 95.78704 36.261806zM98.97795 43.964958L104.24998 49.236967 98.97795 49.236967 98.97795 43.964958zM57.21911 26.825158C56.81079 26.825158 56.346651 26.933823 56.09078 27.292475L49.11181 34.271452 51.3681 36.527745 55.79587 40.955523 64.59628 40.955523 70.72265 47.081884C71.02655 47.385441 71.45715 47.557947 71.88657 47.548152 72.30394 47.548285 72.7188 47.37674 73.0142 47.081884L80.70792 39.38815 80.70713 39.38655C81.27087 38.790692 81.25673 37.743138 80.67713 37.162717 80.09666 36.583391 79.04938 36.569417 78.45364 37.133047L78.45164 37.132263 78.42384 37.160133C78.42289 37.161133 78.42084 37.162233 78.41984 37.163233 78.41784 37.164833 78.41684 37.166333 78.41484 37.168033L71.86759 43.715292 66.07172 37.919432 66.07572 34.986433 58.38199 27.292699C58.0812 26.991811 57.65603 26.819242 57.23063 26.82538 57.22863 26.825498 57.22763 26.825618 57.22563 26.82574L57.22527 26.82574C57.22327 26.825733 57.22027 26.82538 57.21927 26.82538L57.21911 26.825158zM57.23661 30.65929L60.66589 34.088576 53.69703 34.198859 57.23661 30.65929zM70.45676 33.091133C68.90294 33.091109 67.48918 34.504875 67.48921 36.058689 67.48918 37.612505 68.90294 39.02627 70.45676 39.026246 72.01058 39.02627 73.42434 37.612504 73.42431 36.058689 73.42434 34.504875 72.01058 33.091109 70.45676 33.091133zM47.961195 36.261806L47.961195 40.774383 47.961195 50.362842 39.098668 59.225379C38.507971 59.816077 38.507969 60.890977 39.098668 61.481673 39.689362 62.072366 40.76426 62.072365 41.354952 61.481673L50.34488 52.49175 51.15211 52.49175 51.15211 52.42786 60.24813 52.42786C60.62237 52.43486 60.99786 52.310804 61.30142 52.055817 61.30942 52.048817 61.31732 52.041697 61.32522 52.034527 61.35222 52.010957 61.37972 51.988017 61.40552 51.962257 61.41152 51.956757 61.41452 51.951377 61.41982 51.946197 61.42582 51.940397 61.43062 51.934597 61.43592 51.928747 61.46802 51.894767 61.49912 51.860007 61.52782 51.824045 61.53082 51.819445 61.53482 51.815045 61.53782 51.810425 61.56652 51.773555 61.59382 51.736045 61.61872 51.697354 61.62272 51.690354 61.62772 51.683184 61.63122 51.676064 61.65572 51.636604 61.67912 51.596954 61.70002 51.556 61.70202 51.5512 61.70502 51.5465 61.70702 51.54167 61.72712 51.50104 61.74572 51.45993 61.76212 51.418123 61.76812 51.402063 61.77382 51.385903 61.77932 51.369663 61.79092 51.337023 61.80272 51.304443 61.81212 51.271243 61.81812 51.248333 61.82382 51.225273 61.82882 51.202113 61.83482 51.175883 61.84142 51.149963 61.84632 51.123583 61.85132 51.094853 61.85532 51.065983 61.85882 51.037023 61.86182 51.014793 61.86482 50.992633 61.86682 50.970403 61.87082 50.924583 61.87382 50.878573 61.87382 50.832551 61.8736 50.679411 61.85112 50.526319 61.80752 50.379545 61.80735 50.379005 61.80699 50.377945 61.80693 50.377945 61.79243 50.329015 61.77553 50.280775 61.75643 50.233463 61.75608 50.232875 61.75585 50.231863 61.75566 50.231063 61.73816 50.188483 61.71886 50.146663 61.69776 50.105769 61.69476 50.100269 61.69176 50.094489 61.68976 50.089009 61.66566 50.043329 61.63936 49.998819 61.61086 49.955691L61.6105 49.955338C61.5427 49.852236 61.46283 49.757043 61.37312 49.672301L51.15328 39.452566 47.962362 36.261646 47.961195 36.261806zM51.15211 43.964958L56.42413 49.236967 51.15211 49.236967 51.15211 43.964958zM218.92719 73.900667C218.51888 73.900667 218.11041 74.056447 217.79888 74.367977L210.8199 81.346954 213.0762 83.603247 217.50398 88.03102 226.30439 88.03102 232.43076 94.15739C232.73463 94.46094 233.16526 94.63345 233.59467 94.62366 234.01203 94.62379 234.4269 94.45224 234.72229 94.15739L242.41602 86.463659 242.41524 86.462059C242.97897 85.866201 242.96483 84.818654 242.38524 84.238234 241.80476 83.658914 240.7575 83.644938 240.16175 84.208564L240.15975 84.206964 240.13195 84.234834C240.131 84.235834 240.12895 84.236934 240.12795 84.237934 240.12595 84.239534 240.12495 84.241034 240.12295 84.242734L233.57568 90.79 227.77983 84.994133 227.78383 82.061134 220.09009 74.3674C219.7893 74.066514 219.36413 73.893948 218.93873 73.900089 218.93673 73.900207 218.93573 73.900326 218.93373 73.900449L218.93338 73.900449C218.93138 73.900434 218.92838 73.900089 218.92738 73.900089L218.92719 73.900667zM218.94469 77.734792L222.37397 81.164078 215.40511 81.274369 218.94469 77.734792zM232.16484 80.166634C230.61102 80.166611 229.19726 81.580377 229.1973 83.134191 229.19726 84.688006 230.61102 86.101772 232.16484 86.101748 233.71866 86.101772 235.13242 84.688006 235.1324 83.134191 235.13242 81.580377 233.71866 80.166611 232.16484 80.166634zM209.66929 83.337308L209.66929 87.84989 209.66929 97.43834 200.80676 106.30088C200.21606 106.89158 200.21606 107.96649 200.80676 108.55718 201.39745 109.14787 202.47235 109.14787 203.06304 108.55718L212.05296 99.56725 212.8602 99.56725 212.8602 99.50335 221.95622 99.50335C222.33045 99.51035 222.70595 99.3863 223.0095 99.13132 223.0175 99.12432 223.0254 99.11722 223.0332 99.11002 223.0602 99.08642 223.0877 99.06352 223.1135 99.03772 223.1195 99.03272 223.1235 99.02682 223.1278 99.02172 223.1338 99.01572 223.1386 99.01012 223.1439 99.00422 223.176 98.97022 223.2071 98.93552 223.2357 98.89952 223.2387 98.89452 223.2427 98.89052 223.2457 98.88592 223.2744 98.84902 223.3017 98.81152 223.3266 98.77284 223.3306 98.76584 223.3356 98.75864 223.3391 98.75154 223.3636 98.71214 223.3871 98.67244 223.4079 98.63148 223.4099 98.62648 223.4119 98.62148 223.4139 98.61718 223.434 98.57658 223.4527 98.53548 223.4691 98.49363 223.4751 98.47753 223.4808 98.46143 223.4863 98.44513 223.4979 98.41253 223.5097 98.37993 223.5191 98.34673 223.5251 98.32383 223.5308 98.30073 223.5358 98.27763 223.5418 98.25143 223.5484 98.22553 223.5533 98.19913 223.5583 98.17043 223.5623 98.14153 223.5658 98.11253 223.5688 98.09033 223.5718 98.06813 223.5738 98.04593 223.5778 98.00013 223.5808 97.95413 223.5808 97.90808 223.58058 97.75493 223.5581 97.60184 223.5145 97.45507 223.51433 97.45454 223.51398 97.45429 223.51392 97.45307 223.49942 97.40417 223.48242 97.35587 223.46332 97.30858 223.46297 97.30799 223.46274 97.3078 223.46132 97.30658 223.44372 97.26398 223.42442 97.22218 223.40342 97.18129 223.40042 97.17629 223.39742 97.16999 223.39542 97.16449 223.37132 97.11879 223.34502 97.07429 223.31662 97.03117L223.31626 97.03082C223.24846 96.92772 223.16864 96.83252 223.07894 96.74778L212.85894 86.528043 209.66803 83.337123 209.66929 83.337308zM212.8602 91.04046L218.13221 96.31247 212.8602 96.31247 212.8602 91.04046zM171.10127 73.900667C170.69295 73.900667 170.28447 74.056447 169.97295 74.367977L162.99397 81.346954 165.25026 83.603247 169.67803 88.03102 178.47844 88.03102 184.60481 94.15739C184.9087 94.46095 185.33932 94.63345 185.76874 94.62366 186.1861 94.62379 186.60097 94.45224 186.89636 94.15739L194.59008 86.463659 194.5893 86.462059C195.15304 85.866201 195.13889 84.818654 194.5593 84.238234 193.97881 83.658902 192.93153 83.644927 192.33579 84.208564L192.33379 84.206964 192.30599 84.234834C192.30504 84.235834 192.30299 84.236934 192.30199 84.237934 192.29999 84.239534 192.29899 84.241034 192.29699 84.242734L185.74973 90.79 179.95387 84.994133 179.95787 82.061134 172.26413 74.3674C171.96334 74.066516 171.53819 73.893951 171.11279 73.900089 171.11079 73.900207 171.10979 73.900326 171.10779 73.900449L171.10743 73.900449C171.10543 73.900434 171.10243 73.900089 171.10143 73.900089L171.10127 73.900667zM171.11877 77.734792L174.54805 81.164078 167.5792 81.274369 171.11877 77.734792zM184.33892 80.166634C182.7851 80.166611 181.37134 81.580377 181.37137 83.134191 181.37134 84.688006 182.7851 86.101772 184.33892 86.101748 185.89274 86.101777 187.30651 84.688009 187.30649 83.134191 187.30651 81.580374 185.89274 80.166605 184.33892 80.166634zM161.84336 83.337308L161.84336 87.84989 161.84336 97.43834 152.98083 106.30088C152.39014 106.89158 152.39014 107.96649 152.98083 108.55718 153.57153 109.14787 154.64643 109.14787 155.23712 108.55718L164.22703 99.56725 165.03428 99.56725 165.03428 99.50335 174.1303 99.50335C174.50452 99.51035 174.88003 99.3863 175.18358 99.13132 175.19158 99.12432 175.19948 99.11722 175.20738 99.11002 175.23438 99.08642 175.26188 99.06352 175.28768 99.03772 175.29368 99.03272 175.29768 99.02682 175.30198 99.02172 175.30798 99.01572 175.31278 99.01012 175.31808 99.00422 175.35018 98.97022 175.38128 98.93552 175.40988 98.89952 175.41288 98.89452 175.41688 98.89052 175.41988 98.88592 175.44858 98.84902 175.47588 98.81152 175.50078 98.77284 175.50478 98.76584 175.50978 98.75864 175.51328 98.75154 175.53778 98.71214 175.56118 98.67244 175.58208 98.63148 175.58408 98.62648 175.58608 98.62148 175.58808 98.61718 175.60818 98.57658 175.62688 98.53548 175.64318 98.49363 175.64918 98.47753 175.65488 98.46143 175.66038 98.44513 175.67198 98.41253 175.68378 98.37993 175.69318 98.34673 175.69918 98.32383 175.70488 98.30073 175.70978 98.27763 175.71578 98.25143 175.72228 98.22553 175.72728 98.19913 175.73228 98.17043 175.73628 98.14153 175.73978 98.11253 175.74278 98.09033 175.74578 98.06813 175.74778 98.04593 175.75178 98.00013 175.75478 97.95413 175.75478 97.90808 175.75457 97.75493 175.73208 97.60184 175.68848 97.45507 175.68832 97.45454 175.68795 97.45429 175.68789 97.45307 175.67339 97.40417 175.65649 97.35587 175.63739 97.30858 175.63704 97.30799 175.6368 97.3078 175.6366 97.30658 175.6191 97.26398 175.5998 97.22218 175.5787 97.18129 175.5757 97.17629 175.5727 97.16999 175.5707 97.16449 175.5466 97.11879 175.5202 97.07429 175.4918 97.03117L175.49143 97.03082C175.42363 96.92772 175.34381 96.83252 175.25412 96.74778L165.03439 86.528043 161.84347 83.337123 161.84336 83.337308zM165.03428 91.04046L170.30629 96.31247 165.03428 96.31247 165.03428 91.04046zM123.27537 73.900667C122.86706 73.900667 122.45857 74.056447 122.14704 74.367977L115.16807 81.346954 117.42437 83.603247 121.85214 88.03102 130.65256 88.03102 136.77892 94.15739C137.0828 94.46094 137.51342 94.63345 137.94283 94.62366 138.36021 94.62379 138.77508 94.45225 139.07046 94.15739L146.7642 86.463659 146.7622 86.462059C147.32593 85.866201 147.31179 84.818654 146.7322 84.238234 146.15172 83.658914 145.10446 83.644938 144.50872 84.208564L144.50672 84.206964 144.47892 84.234834C144.47797 84.235834 144.47592 84.236934 144.47492 84.237934 144.47292 84.239534 144.47192 84.241034 144.46992 84.242734L137.92265 90.79 132.12679 84.994133 132.13079 82.061134 124.43706 74.3674C124.13627 74.066514 123.71111 73.893948 123.2857 73.900089 123.2837 73.900207 123.2827 73.900326 123.2807 73.900449L123.28035 73.900449C123.27835 73.900434 123.27535 73.900089 123.27435 73.900089L123.27537 73.900667zM123.29287 77.734792L126.72216 81.164078 119.75332 81.274369 123.29287 77.734792zM136.51304 80.166634C134.95922 80.166611 133.54546 81.580377 133.54549 83.134191 133.54546 84.688006 134.95922 86.101772 136.51304 86.101748 138.06685 86.101777 139.48063 84.688009 139.4806 83.134191 139.48063 81.580374 138.06685 80.166605 136.51304 80.166634zM114.01748 83.337308L114.01748 87.84989 114.01748 97.43834 105.15494 106.30088C104.56424 106.89158 104.56424 107.96649 105.15494 108.55718 105.74564 109.14788 106.82054 109.14788 107.41124 108.55718L116.40115 99.56725 117.2084 99.56725 117.2084 99.50335 126.30441 99.50335C126.67864 99.51035 127.05413 99.3863 127.35769 99.13132 127.36569 99.12432 127.37359 99.11722 127.38139 99.11002 127.40839 99.08642 127.43589 99.06352 127.46169 99.03772 127.46769 99.03272 127.47069 99.02682 127.47599 99.02172 127.48199 99.01572 127.48679 99.01012 127.49209 99.00422 127.52419 98.97022 127.55529 98.93552 127.58389 98.89952 127.58689 98.89452 127.59089 98.89052 127.59389 98.88592 127.62259 98.84902 127.64989 98.81152 127.67479 98.77284 127.67879 98.76584 127.68379 98.75864 127.68729 98.75154 127.71179 98.71214 127.73529 98.67244 127.75609 98.63148 127.75809 98.62648 127.76009 98.62148 127.76209 98.61718 127.78219 98.57658 127.80079 98.53548 127.81729 98.49363 127.82329 98.47753 127.82899 98.46143 127.83449 98.44513 127.84609 98.41253 127.85789 98.37993 127.86729 98.34673 127.87329 98.32383 127.87899 98.30073 127.88399 98.27763 127.88999 98.25143 127.89649 98.22553 127.90149 98.19913 127.90649 98.17043 127.91049 98.14153 127.91399 98.11253 127.91699 98.09033 127.91999 98.06813 127.92199 98.04593 127.92599 98.00013 127.92899 97.95413 127.92899 97.90808 127.92877 97.75493 127.90629 97.60184 127.86269 97.45507 127.86251 97.45454 127.86215 97.45429 127.86211 97.45307 127.84761 97.40417 127.83061 97.35587 127.81151 97.30858 127.81114 97.30799 127.81092 97.3078 127.81073 97.30658 127.79323 97.26398 127.77393 97.22218 127.75283 97.18129 127.74983 97.17629 127.74683 97.16999 127.74483 97.16449 127.72073 97.11879 127.69443 97.07429 127.66593 97.03117L127.66556 97.03082C127.59776 96.92772 127.51794 96.83252 127.42825 96.74778L117.20832 86.528043 114.0174 83.337123 114.01748 83.337308zM117.2084 91.04046L122.48041 96.31247 117.2084 96.31247 117.2084 91.04046zM27.623629 73.900667C27.215313 73.900667 26.806833 74.056447 26.495303 74.367977L19.516325 81.346954 21.772627 83.603247 26.200395 88.03102 35.000808 88.03102 41.127177 94.15739C41.431061 94.46094 41.861681 94.63345 42.291095 94.62366 42.708464 94.62379 43.123325 94.45224 43.418717 94.15739L51.112442 86.463659 51.110542 86.462059C51.674291 85.866212 51.660164 84.818665 51.080522 84.238234 50.500039 83.658907 49.452767 83.644931 48.857029 84.208564L48.856246 84.206964 48.828376 84.234834C48.827176 84.235834 48.825676 84.236934 48.824476 84.237934 48.822876 84.239534 48.821376 84.241034 48.819676 84.242734L42.272416 90.79 36.476555 84.994133 36.480455 82.061134 28.786721 74.3674C28.486013 74.06657 28.060849 73.894004 27.635448 73.900144 27.633848 73.900262 27.632348 73.900382 27.630648 73.900504L27.630288 73.900504C27.627888 73.900489 27.625488 73.900144 27.623988 73.900144L27.623629 73.900667zM27.641079 77.734792L31.070363 81.164078 24.101509 81.274369 27.641079 77.734792zM40.861235 80.166634C39.307421 80.166612 37.893659 81.580378 37.893685 83.134191 37.893659 84.688006 39.307421 86.101771 40.861235 86.101748 42.415051 86.101775 43.828818 84.688008 43.828792 83.134191 43.828818 81.580375 42.415052 80.166607 40.861235 80.166634zM18.365676 83.337308L18.365676 87.84989 18.365676 97.43834 9.503145 106.30088C8.912447 106.89158 8.912447 107.96649 9.503145 108.55718 10.09384 109.14787 11.168735 109.14787 11.759429 108.55718L20.749351 99.56725 21.556588 99.56725 21.556588 99.50335 30.652605 99.50335C31.02684 99.51035 31.402335 99.3863 31.705895 99.13132 31.713895 99.12432 31.721775 99.11722 31.729615 99.11002 31.756625 99.08642 31.784195 99.06352 31.809885 99.03772 31.815385 99.03272 31.819185 99.02682 31.824215 99.02172 31.829615 99.01572 31.834955 99.01012 31.840275 99.00422 31.872375 98.97022 31.903455 98.93552 31.932065 98.89952 31.935365 98.89452 31.938665 98.89052 31.941865 98.88592 31.970515 98.84902 31.997925 98.81152 32.022835 98.77284 32.027035 98.76584 32.031335 98.75864 32.035365 98.75154 32.059875 98.71214 32.083355 98.67244 32.104105 98.63148 32.106305 98.62648 32.108305 98.62148 32.110405 98.61718 32.130525 98.57658 32.149165 98.53548 32.165515 98.49363 32.171515 98.47753 32.177195 98.46143 32.182655 98.44513 32.194245 98.41253 32.205985 98.37993 32.215455 98.34673 32.221555 98.32383 32.227095 98.30073 32.232135 98.27763 32.238435 98.25143 32.244745 98.22553 32.249585 98.19913 32.254585 98.17043 32.258685 98.14153 32.262115 98.11253 32.265215 98.09033 32.268415 98.06813 32.270115 98.04593 32.274415 98.00013 32.276815 97.95413 32.277115 97.90808 32.276906 97.75494 32.254495 97.60184 32.210805 97.45507 32.210634 97.45454 32.210273 97.45429 32.210218 97.45307 32.195688 97.40417 32.178798 97.35587 32.159638 97.30858 32.159287 97.30799 32.159051 97.3078 32.158856 97.30658 32.141356 97.26398 32.122026 97.22218 32.100916 97.18129 32.097816 97.17629 32.095416 97.16999 32.092916 97.16449 32.068806 97.11879 32.042476 97.07429 32.014046 97.03117L32.013686 97.03082C31.945936 96.92779 31.8661 96.83259 31.776385 96.74784L21.556231 86.528087 18.365311 83.337166 18.365676 83.337308zM21.556588 91.04046L26.828604 96.31247 21.556588 96.31247 21.556588 91.04046z"/>
    <g stroke="#E61E00" stroke-linecap="round" stroke-linejoin="round" stroke-width="3.132" transform="translate(98 .827)">
      <polyline points=".226 81.539 64.197 17.568 187.069 17.012"/>
      <polyline points="170.352 .087 187.548 17.283 170.911 33.921"/>
    </g>
  </g>
</svg>
