<svg xmlns="http://www.w3.org/2000/svg" width="278" height="87" viewBox="0 0 278 87">
  <g fill="none" fill-rule="evenodd">
    <path fill="#0A6767" d="M84.83872 27.4233L53.98737 45.22742 85.29873 63.3056C88.12959 58.07917 89.74247 52.08893 89.74247 45.72659 89.74247 39.05583 87.93335 32.82405 84.83872 27.4233zM141.42702.642949L141.42702 40.50022 175.9294 20.58248C168.85513 8.822007 156.0922.889286 141.42702.642949zM183.0591 27.4233L152.20775 45.22742 183.51911 63.3056C186.34997 58.07917 187.96284 52.08893 187.96284 45.72659 187.96284 39.05583 186.15373 32.82405 183.0591 27.4233z"/>
    <path fill="#E61E00" d="M277.568088,45.7483487 C277.568088,68.4430172 259.170426,86.8406812 236.475758,86.8406812 C213.781091,86.8406812 195.383428,68.4430172 195.383428,45.7483487 C195.383428,23.0536801 213.781091,4.65601542 236.475758,4.65601542 C259.170426,4.65601542 277.568088,23.0536801 277.568088,45.7483487 Z"/>
    <path fill="#E61E00" fill-rule="nonzero" d="M41.572627,4.72223 C18.895655,4.72223 0.507105,23.11078 0.507105,45.78774 C0.507105,68.46469 18.895655,86.84238 41.572627,86.84238 C57.18033,86.84238 70.74536,78.14115 77.68981,65.31996 L42.584055,44.90683 C42.584055,44.90683 42.268656,17.85278 42.268656,4.75485 C42.034651,4.75085 41.807568,4.72225 41.572627,4.72225 L41.572627,4.72223 Z M79.96279,25.45073 L45.683527,45.2331 L80.47392,65.31996 C83.61934,59.51281 85.41139,52.85699 85.41139,45.78774 C85.41139,38.37578 83.40126,31.45158 79.96279,25.45073 Z"/>
    <path fill="#E61E00" d="M138.18425,4.65544 C137.94908,4.65544 137.72189,4.68414 137.48767,4.68804 C137.45447,4.68875 137.42267,4.69834 137.38977,4.69894 C136.02915,4.72504 134.67691,4.80505 133.35179,4.96016 C133.31479,4.96516 133.27989,4.97746 133.24295,4.98196 C131.94229,5.13777 130.66129,5.34981 129.40086,5.62411 C129.22811,5.66181 129.06132,5.71481 128.88933,5.75472 C127.73312,6.02211 126.5883,6.31725 125.47176,6.67985 C125.41576,6.69805 125.36434,6.72675 125.30847,6.74525 C124.09267,7.14592 122.90122,7.59771 121.73852,8.10576 C120.52975,8.63397 119.34601,9.22033 118.20123,9.85809 C117.06083,10.4934 115.95187,11.17772 114.88162,11.91516 C114.85002,11.93716 114.82612,11.96936 114.79452,11.99136 C113.74983,12.71548 112.7399,13.4725 111.76873,14.28789 C110.77593,15.12151 109.81566,16.0102 108.90626,16.93271 C108.85926,16.98051 108.82236,17.03712 108.77564,17.08508 C107.92292,17.95852 107.09947,18.85969 106.32672,19.80609 C106.1617,20.00864 106.01999,20.23163 105.85872,20.43736 C105.21481,21.25746 104.58953,22.08294 104.00845,22.95158 C103.81496,23.24107 103.6505,23.54943 103.46425,23.84407 C102.95926,24.64208 102.44508,25.43721 101.99492,26.2712 C101.7337,26.75555 101.51863,27.26652 101.27653,27.76231 C100.93671,28.45758 100.57627,29.14626 100.27521,29.86293 C100.09844,30.28444 99.97024,30.72961 99.8072,31.15813 C99.49521,31.97722 99.17482,32.7855 98.91472,33.62879 C98.85652,33.81773 98.81792,34.01556 98.76235,34.20565 C98.44056,35.30558 98.14351,36.42179 97.91339,37.55793 C97.64517,38.88226 97.44132,40.22854 97.30389,41.59589 C97.16649,42.96349 97.09707,44.34983 97.09707,45.75359 C97.09707,68.44852 115.48933,86.84077 138.18426,86.84077 C139.40422,86.84077 140.6048,86.77077 141.79775,86.66663 C142.21278,86.63033 142.62717,86.58453 143.03854,86.53602 C144.16441,86.40333 145.28381,86.23538 146.37991,86.01359 C146.41191,86.00659 146.44581,86.00859 146.47791,86.00269 C147.69009,85.75439 148.86626,85.43 150.03696,85.07755 C150.29853,84.99875 150.56134,84.92192 150.82061,84.8381 C151.85026,84.50538 152.865,84.13789 153.85727,83.72793 C153.99425,83.67133 154.13465,83.62273 154.27087,83.56467 C155.37999,83.09227 156.45773,82.56192 157.5143,81.99738 C157.71934,81.88773 157.92085,81.77297 158.12381,81.65997 C159.03636,81.15223 159.93312,80.61177 160.80128,80.03825 C160.95616,79.93583 161.11591,79.83795 161.26927,79.73349 C162.15995,79.1276 163.01013,78.47919 163.84879,77.80703 C165.11249,76.79326 166.3274,75.71731 167.4623,74.56358 C167.6302,74.39307 167.77624,74.20366 167.9412,74.03027 C168.91215,73.00833 169.83212,71.93703 170.69487,70.81948 C171.02452,70.39274 171.35052,69.96411 171.66352,69.52429 C171.95226,69.11825 172.24918,68.72207 172.52339,68.30527 C173.03871,67.52246 173.51979,66.71882 173.98181,65.8999 L139.31622,45.89508 L138.12988,45.20938 L173.52471,24.7692 C166.35951,12.72765 153.21353,4.65553 138.18428,4.65553 L138.18425,4.65544 Z"/>
    <path fill="#E61E00" d="M179.37203,25.42984 L145.09276,45.2122 L179.88315,65.29907 C183.02856,59.49192 184.82063,52.8361 184.82063,45.76685 C184.82063,38.35488 182.8105,31.43069 179.37203,25.42984 Z"/>
  </g>
</svg>
