<svg xmlns="http://www.w3.org/2000/svg" width="190" height="161" viewBox="0 0 190 161">
  <g fill="none" fill-rule="evenodd">
    <path fill="#0A6767" fill-rule="nonzero" d="M92.59375,59.03125 L92.59375,69.84375 L63.6875,69.84375 L63.6875,64.8125 C63.6924767,64.3468633 63.5097008,63.8988466 63.1804271,63.5695729 C62.8511534,63.2402992 62.4031367,63.0575233 61.9375,63.0625 C60.9912324,63.0865465 60.2396322,63.8659837 60.25,64.8125 L60.25,69.84375 L48.28125,69.84375 C47.8204944,69.8516079 47.3818759,70.0428005 47.0625,70.375 L31.90625,85.53125 L15.78125,85.53125 C14.8233811,85.53125 14.046875,86.3077561 14.046875,87.265625 C14.046875,88.2234939 14.8233811,89 15.78125,89 L32.625,89 C33.0857556,88.9921421 33.5243741,88.8009495 33.84375,88.46875 L49,73.3125 L72.65625,73.3125 L72.65625,85.53125 L59.21875,85.53125 C59.0952545,85.5072586 58.9695122,85.4967968 58.84375,85.50005 C58.7284135,85.4989754 58.6132582,85.5094274 58.5,85.53125 L49.5,85.53125 C49.4375459,85.5278637 49.3749541,85.5278637 49.3125,85.53125 C48.6928674,85.5647435 48.1381718,85.9262629 47.8573619,86.4796273 C47.5765519,87.0329917 47.6122892,87.6941318 47.9511119,88.2140025 C48.2899346,88.7338732 48.8803674,89.0334938 49.5,89 L57.15625,89 L57.15625,93.40625 C57.0748996,94.070469 57.3835542,94.7221085 57.9490166,95.0799591 C58.514479,95.4378098 59.235521,95.4378098 59.8009834,95.0799591 C60.3664458,94.7221085 60.6751004,94.070469 60.59375,93.40625 L60.59375,89 L72.65625,89 L72.65625,96.5 C72.65625,97.4578689 73.4327561,98.234375 74.390625,98.234375 C75.3484939,98.234375 76.125,97.4578689 76.125,96.5 L76.125,73.3125 L92.59375,73.3125 L92.59375,83.25 C92.59375,84.2078689 93.3702561,84.984375 94.328125,84.984375 C95.2859939,84.984375 96.0625,84.2078689 96.0625,83.25 L96.0625,73.3125 L140.375,73.3125 C141.332869,73.3125 142.109375,72.5359939 142.109375,71.578125 C142.109375,70.6202561 141.332869,69.84375 140.375,69.84375 L96.0625,69.84375 L96.0625,59.03125 L92.59375,59.03125 Z M106.53125,79.125 C105.911617,79.1584936 105.356922,79.520013 105.076112,80.0733774 C104.795302,80.6267417 104.831039,81.2878817 105.169862,81.8077524 C105.508685,82.3276231 106.099117,82.6272437 106.71875,82.59375 L114.28125,82.59375 C115.239119,82.59375 116.015625,81.8172439 116.015625,80.859375 C116.015625,79.9015061 115.239119,79.125 114.28125,79.125 L106.71875,79.125 C106.656296,79.1216192 106.593704,79.1216192 106.53125,79.125 Z M129.5625,85.5 C129.509966,85.507997 129.457827,85.518408 129.40625,85.5312 L114.28125,85.5312 C114.218796,85.5278137 114.156204,85.5278137 114.09375,85.5312 C113.135881,85.5829767 112.401348,86.4014561 112.453125,87.359325 C112.504902,88.3171939 113.323381,89.0517267 114.28125,88.99995 L128.0625,88.99995 L128.0625,93.4062 C128.0625,94.3640689 128.839006,95.140575 129.796875,95.140575 C130.754744,95.140575 131.53125,94.3640689 131.53125,93.4062 L131.53125,88.99995 L138.4375,88.99995 L158.03125,109.24995 C158.461056,109.696663 159.096552,109.880109 159.698303,109.73117 C160.300053,109.582231 160.776615,109.123541 160.948433,108.52792 C161.120252,107.932298 160.961218,107.290258 160.53125,106.8437 L140.40625,86.06245 C140.079317,85.7225271 139.627877,85.530665 139.15625,85.5312 L130.15625,85.5312 C130.022533,85.5048489 129.886173,85.4943764 129.75,85.5 C129.687546,85.4966137 129.624954,85.4966137 129.5625,85.5 Z M164.9375,85.5 C164.884966,85.507997 164.832827,85.518408 164.78125,85.5312 L156.03125,85.5312 C155.979193,85.5288489 155.927057,85.5288489 155.875,85.5312 C155.255301,85.5590211 154.69753,85.9153663 154.411829,86.4659803 C154.126129,87.0165943 154.155913,87.6778083 154.489961,88.2005057 C154.824009,88.7232032 155.41156,89.0279573 156.03125,88.99995 L163.40625,88.99995 L163.40625,96.49995 C163.40625,97.4578189 164.182756,98.234325 165.140625,98.234325 C166.098494,98.234325 166.875,97.4578189 166.875,96.49995 L166.875,88.99995 L172.875,88.99995 C173.832869,88.99995 174.609375,88.2234439 174.609375,87.265575 C174.609375,86.3077061 173.832869,85.5312 172.875,85.5312 L165.5,85.5312 C165.376505,85.5072086 165.250762,85.4967468 165.125,85.5 C165.062546,85.4966137 164.999954,85.4966137 164.9375,85.5 Z M100.5,89.71875 C99.8175682,89.7637583 99.2255606,90.2062217 98.9891277,90.8479681 C98.7526948,91.4897145 98.9161365,92.2105013 99.40625,92.6875 L104.15625,97.6875 C104.562713,98.2037784 105.226372,98.4455164 105.869665,98.3116116 C106.512957,98.1777067 107.025035,97.6912327 107.191732,97.055648 C107.358428,96.4200633 107.151019,95.7448874 106.65625,95.3125 L101.90625,90.28125 C101.592153,89.9375135 101.152855,89.7347609 100.6875,89.71875 C100.625046,89.7153637 100.562454,89.7153637 100.5,89.71875 Z M94.125,98.34375 C93.2405663,98.4466341 92.5783209,99.2034859 92.59375,100.09375 L92.59375,104.84375 L84,104.84375 C83.8255822,104.806038 83.6463831,104.795514 83.46875,104.81255 C83.4162155,104.820547 83.364077,104.830958 83.3125,104.84375 L53.625,104.84375 C53.5003686,104.830175 53.3746314,104.830175 53.25,104.84375 C52.3431694,104.99377 51.7115613,105.826175 51.8112415,106.73991 C51.9109217,107.653645 52.7071529,108.330286 53.625,108.28125 L81.9375,108.28125 L81.9375,112.71875 C81.9375,113.676619 82.7140061,114.453125 83.671875,114.453125 C84.6297439,114.453125 85.40625,113.676619 85.40625,112.71875 L85.40625,108.28125 L92.59375,108.28125 L92.59375,124.46875 C92.4893498,124.804573 92.4893498,125.164177 92.59375,125.5 L92.59375,132.34375 L86.78125,132.34375 C86.7187959,132.340364 86.6562041,132.340364 86.59375,132.34375 C85.9741175,132.377244 85.419422,132.738763 85.1386121,133.292127 C84.8578022,133.845492 84.8935395,134.506632 85.2323621,135.026502 C85.5711847,135.546373 86.1616175,135.845994 86.78125,135.8125 L92.59375,135.8125 L92.59375,141.625 C92.4893498,141.960823 92.4893498,142.320427 92.59375,142.65625 L92.59375,158.5625 C92.59375,159.520369 93.3702561,160.296875 94.328125,160.296875 C95.2859939,160.296875 96.0625,159.520369 96.0625,158.5625 L96.0625,143.90625 L101.90625,143.90625 C102.864119,143.90625 103.640625,143.129744 103.640625,142.171875 C103.640625,141.214006 102.864119,140.4375 101.90625,140.4375 L96.0625,140.4375 L96.0625,134.375 C96.0897818,134.198967 96.0897818,134.019783 96.0625,133.84375 L96.0625,126.75 L112.53125,126.75 L112.53125,144.5 C112.539108,144.960756 112.730301,145.399374 113.0625,145.71875 L120.15625,152.84375 C120.591667,153.28475 121.22928,153.459958 121.828906,153.303375 C122.428532,153.146792 122.899073,152.682208 123.063281,152.084625 C123.227489,151.487043 123.060417,150.84725 122.625,150.40625 L116,143.78125 L116,126.75 L128.53125,126.75 L135.84375,134.0625 C136.279167,134.5035 136.91678,134.678708 137.516406,134.522125 C138.116032,134.365543 138.586573,133.900958 138.750781,133.303375 C138.914989,132.705793 138.747918,132.066 138.3125,131.625 L130.46875,123.78125 C130.144238,123.460528 129.706257,123.280844 129.25,123.28125 L114.625,123.28125 C114.501505,123.257259 114.375762,123.246797 114.25,123.25005 C114.134664,123.248975 114.019508,123.259427 113.90625,123.28125 L96.0625,123.28125 L96.0625,107.4375 C96.3669004,106.905017 96.3669004,106.251233 96.0625,105.71875 L96.0625,100.09375 C96.0713814,99.5933053 95.8632825,99.1134985 95.4918427,98.7780045 C95.1204029,98.4425105 94.6219627,98.2841529 94.125,98.34375 Z M123.34375,104.8125 C123.291216,104.820497 123.239077,104.830908 123.1875,104.8437 L116.40625,104.8437 C116.29195,104.832298 116.1768,104.832298 116.0625,104.8437 C115.166424,104.997438 114.541843,105.818 114.632309,106.722657 C114.722774,107.627313 115.497475,108.307947 116.40625,108.2812 L121.8125,108.2812 L121.8125,115.81245 C121.8125,116.770319 122.589006,117.546825 123.546875,117.546825 C124.504744,117.546825 125.28125,116.770319 125.28125,115.81245 L125.28125,108.2812 L134.3125,108.2812 L146.125,120.1562 C146.798097,120.837926 147.896399,120.844922 148.578125,120.171825 C149.259851,119.498728 149.266847,118.400426 148.59375,117.7187 L136.28125,105.3437 C135.956738,105.022978 135.518757,104.843294 135.0625,104.8437 L123.875,104.8437 C123.700582,104.805988 123.521383,104.795464 123.34375,104.8125 Z M2.0625,106.3125 C1.44280124,106.340321 0.885029638,106.696666 0.599329159,107.24728 C0.31362868,107.797894 0.343413094,108.459108 0.677460936,108.981806 C1.01150878,109.504503 1.59905963,109.809257 2.21875,109.78125 L29.375,109.78125 C30.3328689,109.78125 31.109375,109.004744 31.109375,108.046875 C31.109375,107.089006 30.3328689,106.3125 29.375,106.3125 L2.21875,106.3125 C2.1666932,106.310149 2.1145568,106.310149 2.0625,106.3125 Z M16.96875,117.1875 C16.5741435,117.240747 16.2099446,117.428365 15.9375,117.71875 L3.34375,130.3125 C2.83549637,130.731225 2.60874227,131.402 2.75868165,132.043226 C2.90862103,132.684451 3.40929869,133.185129 4.05052448,133.335068 C4.69175027,133.485008 5.36252506,133.258254 5.78125,132.75 L17.90625,120.65625 L41.3125,120.65625 C42.2703689,120.65625 43.046875,119.879744 43.046875,118.921875 C43.046875,117.964006 42.2703689,117.1875 41.3125,117.1875 L17.15625,117.1875 C17.0937959,117.184114 17.0312041,117.184114 16.96875,117.1875 Z M171.3125,117.1875 C170.641129,117.254339 170.069715,117.705046 169.848325,118.342379 C169.626936,118.979711 169.795891,119.6876 170.28125,120.15625 L182.875,132.75 C183.310417,133.191 183.94803,133.366208 184.547656,133.209625 C185.147282,133.053043 185.617823,132.588458 185.782031,131.990875 C185.946239,131.393293 185.779168,130.7535 185.34375,130.3125 L172.71875,117.71875 C172.355316,117.336822 171.837682,117.141271 171.3125,117.1875 Z M157.46875,117.25 C156.572077,117.353874 155.905617,118.129143 155.9375,119.03125 L155.9375,134.75 L150.125,134.75 C150.062546,134.746614 149.999954,134.746614 149.9375,134.75 C148.979631,134.801777 148.245098,135.620256 148.296875,136.578125 C148.348652,137.535994 149.167131,138.270527 150.125,138.21875 L155.9375,138.21875 L155.9375,144.34375 C155.9375,145.301619 156.714006,146.078125 157.671875,146.078125 C158.629744,146.078125 159.40625,145.301619 159.40625,144.34375 L159.40625,136.78125 C159.433532,136.605217 159.433532,136.426033 159.40625,136.25 L159.40625,119.03125 C159.419791,118.560249 159.240805,118.10407 158.910581,117.767949 C158.580357,117.431829 158.127417,117.244796 157.65625,117.25 C157.593796,117.246614 157.531204,117.246614 157.46875,117.25 Z M74.1875,123.25 C73.2908268,123.353874 72.6243674,124.129143 72.65625,125.03125 L72.65625,134.75 L66.8125,134.75 C66.7604432,134.747649 66.7083068,134.747649 66.65625,134.75 C66.0365512,134.777821 65.4787796,135.134166 65.1930792,135.68478 C64.9073787,136.235394 64.9371631,136.896608 65.2712109,137.419306 C65.6052588,137.942003 66.1928096,138.246757 66.8125,138.21875 L72.65625,138.21875 L72.65625,144.5 C72.65625,145.457869 73.4327561,146.234375 74.390625,146.234375 C75.3484939,146.234375 76.125,145.457869 76.125,144.5 L76.125,125.03125 C76.1385413,124.560249 75.9595545,124.10407 75.6293306,123.767949 C75.2991067,123.431829 74.8461665,123.244796 74.375,123.25 C74.3125459,123.246614 74.2499541,123.246614 74.1875,123.25 Z M59.21875,123.2812 C58.8282112,123.32598 58.4645313,123.50231 58.1875,123.7812 L50.375,131.62495 C49.8667464,132.043675 49.6399923,132.71445 49.7899317,133.355676 C49.939871,133.996901 50.4405487,134.497579 51.0817745,134.647518 C51.7230003,134.797458 52.3937751,134.570704 52.8125,134.06245 L60.625,126.24995 C61.162676,125.734208 61.310181,124.932355 60.9912394,124.259034 C60.6722977,123.585713 59.9584175,123.191885 59.21875,123.2812 Z M22.78125,126.87495 C21.885174,127.028688 21.2605931,127.84925 21.3510588,128.753907 C21.4415245,129.658563 22.2162249,130.339197 23.125,130.31245 L30.6875,130.31245 C31.351719,130.3938 32.0033585,130.085146 32.3612091,129.519683 C32.7190598,128.954221 32.7190598,128.233179 32.3612091,127.667717 C32.0033585,127.102254 31.351719,126.7936 30.6875,126.87495 L23.125,126.87495 C23.0107003,126.863548 22.8955497,126.863548 22.78125,126.87495 Z M30.8125,134.74995 C29.8546393,134.801754 29.1201267,135.620235 29.1719022,136.578097 C29.2236778,137.535959 30.0421362,138.270497 31,138.21875 L38.5625,138.21875 C39.5203689,138.21875 40.296875,137.442244 40.296875,136.484375 C40.296875,135.526506 39.5203689,134.75 38.5625,134.75 L31,134.75 C30.9375459,134.746614 30.8749541,134.746614 30.8125,134.75 L30.8125,134.74995 Z M26.34375,142.62495 C25.3858811,142.676727 24.6513483,143.495206 24.703125,144.453075 C24.7549017,145.410944 25.5733811,146.145477 26.53125,146.0937 L31,146.0937 C31.9578689,146.0937 32.734375,145.317194 32.734375,144.359325 C32.734375,143.401456 31.9578689,142.62495 31,142.62495 L26.53125,142.62495 C26.4687959,142.621564 26.4062041,142.621564 26.34375,142.62495 Z"/>
    <g stroke="#E61E00" stroke-linecap="round" stroke-linejoin="round" stroke-width="3.463" transform="translate(3.106 57.613)">
      <path d="M92.4376821.349409144L92.4376821 100.945272M160.252109 86.73958L155.78167 86.73958M124.801811 7.21245368L124.801811 13.364889M112.379481 23.2548533L104.816121 23.2548533M103.100717 48.9474416L103.100717 55.0998682M163.251794 29.6532454L163.251794 38.8985935M119.942842 78.8594043L112.379481 78.8594043M121.658246 48.9474416L121.658246 58.192781M155.78167 78.8594043L148.21831 78.8594043M163.642229 70.9792286L156.078869 70.9792286M112.379481 13.9761234L112.379481 38.8985935M127.894733 29.6532454L127.894733 35.8056807"/>
      <polyline points="112.379 29.653 137.274 29.653 157.38 50.421 184.536 50.421"/>
      <polyline points="112.379 67.407 112.379 86.887 119.495 94.003"/>
      <polyline points="92.438 67.407 127.356 67.407 135.183 75.235"/>
      <path d="M155.78167,61.4047636 L155.78167,86.73958"/>
      <polyline points="92.438 48.947 133.16 48.947 145.457 61.315 169.602 61.315 182.215 73.928"/>
      <polyline points="170.984 29.645 154.149 29.645 138.48 13.976 92.438 13.976"/>
      <path d="M60.0734664 7.21245368L60.0734664 13.364889M72.495883 23.2548533L80.0592435 23.2548533M81.774561 48.9474416L81.774561 55.0998682M92.4376821 84.5542254L100.001043 84.5542254"/>
      <polyline points="103.518 38.887 98.762 33.868 85.219 33.868 80.088 38.887"/>
      <path d="M21.623475 29.6532454L21.623475 38.8985935M84.8743216 76.4644094L92.4376821 76.4644094M64.9325225 78.8594043L72.495883 78.8594043M63.2171185 48.9474416L63.2171185 58.192781M24.6232462 86.73958L29.0936852 86.73958M29.0936852 78.8594043L36.6570543 78.8594043M21.2330399 70.9792286L28.7964004 70.9792286M72.495883 13.9761234L72.495883 38.8985935M56.9805449 29.6532454L56.9805449 35.8056807"/>
      <polyline points="72.496 29.653 47.602 29.653 27.496 50.421 .339 50.421"/>
      <polyline points="72.496 67.407 72.496 86.887 65.38 94.003"/>
      <polyline points="92.438 67.407 57.519 67.407 49.692 75.235"/>
      <path d="M29.0936852,61.4047636 L29.0936852,86.73958"/>
      <polyline points="92.438 48.947 51.715 48.947 39.419 61.315 15.274 61.315 2.661 73.928"/>
      <polyline points="13.891 29.645 30.726 29.645 46.395 13.976 92.438 13.976"/>
    </g>
    <g transform="translate(81.183 1.328)">
      <path fill="#0A6767" d="M13.5642733,3.72647964 L13.5642733,10.6476097 C13.5582623,11.1804354 13.9447645,11.6705189 14.3710274,11.6705189 C14.7972904,11.6705189 15.1838086,11.1804354 15.1777816,10.6476097 L15.1777816,3.72647964 C14.9071248,3.77146068 14.6376339,3.80212041 14.360942,3.80212041 C14.0910194,3.80212041 13.8261355,3.76972599 13.5642733,3.72647964 Z"/>
      <rect width="28.891" height="45.44" x=".127" y="11.056" fill="#FFF" stroke="#0A6767" stroke-linecap="round" stroke-linejoin="round" stroke-width="2.388"/>
      <path fill="#0A6767" fill-rule="nonzero" d="M5.06292086,16.7064068 L9.08120039,16.7064068 L9.08120039,20.7246823 L5.06292086,20.7246823 L5.06292086,16.7064068 Z M12.5637053,16.7064068 L16.5819848,16.7064068 L16.5819848,20.7246823 L12.5637053,20.7246823 L12.5637053,16.7064068 Z M20.0644776,16.7064068 L24.0827531,16.7064068 L24.0827531,20.7246823 L20.0644776,20.7246823 L20.0644776,16.7064068 Z M5.06292086,22.733818 L9.08120039,22.733818 L9.08120039,26.7520975 L5.06292086,26.7520975 L5.06292086,22.733818 Z M12.5637053,22.733818 L16.5819848,22.733818 L16.5819848,26.7520975 L12.5637053,26.7520975 L12.5637053,22.733818 Z M20.0644776,22.733818 L24.0827531,22.733818 L24.0827531,26.7520975 L20.0644776,26.7520975 L20.0644776,22.733818 Z M5.06292086,28.7612454 L9.08120039,28.7612454 L9.08120039,32.7795249 L5.06292086,32.7795249 L5.06292086,28.7612454 Z M12.5637053,28.7612454 L16.5819848,28.7612454 L16.5819848,32.7795249 L12.5637053,32.7795249 L12.5637053,28.7612454 Z M20.0644776,28.7612454 L24.0827531,28.7612454 L24.0827531,32.7795249 L20.0644776,32.7795249 L20.0644776,28.7612454 Z M5.06292086,34.7886485 L9.08120039,34.7886485 L9.08120039,38.806924 L5.06292086,38.806924 L5.06292086,34.7886485 Z M12.5637053,34.7886485 L16.5819848,34.7886485 L16.5819848,38.806924 L12.5637053,38.806924 L12.5637053,34.7886485 Z M20.0644776,34.7886485 L24.0827531,34.7886485 L24.0827531,38.806924 L20.0644776,38.806924 L20.0644776,34.7886485 Z M5.06292086,40.8161001 L9.08120039,40.8161001 L9.08120039,44.8343756 L5.06292086,44.8343756 L5.06292086,40.8161001 Z M12.5637053,40.8161001 L16.5819848,40.8161001 L16.5819848,44.8343756 L12.5637053,44.8343756 L12.5637053,40.8161001 Z M20.0644776,40.8161001 L24.0827531,40.8161001 L24.0827531,44.8343756 L20.0644776,44.8343756 L20.0644776,40.8161001 Z M5.06292086,46.8435032 L9.08120039,46.8435032 L9.08120039,50.8617787 L5.06292086,50.8617787 L5.06292086,46.8435032 Z M12.5637053,46.8435032 L16.5819848,46.8435032 L16.5819848,50.8617787 L12.5637053,50.8617787 L12.5637053,46.8435032 Z M20.0644776,46.8435032 L24.0827531,46.8435032 L24.0827531,50.8617787 L20.0644776,50.8617787 L20.0644776,46.8435032 Z"/>
      <path fill="#E61E00" stroke="#E61E00" stroke-linecap="round" stroke-linejoin="round" stroke-width="1.531" d="M16.697625,2.45005753 C16.697625,3.62353481 15.7463339,4.57482581 14.5728567,4.57482581 C13.3993828,4.57482581 12.4480918,3.62353481 12.4480918,2.45005753 C12.4480918,1.27658365 13.3993828,0.32529264 14.5728567,0.32529264 C15.7463339,0.32529264 16.697625,1.27658365 16.697625,2.45005753 Z"/>
    </g>
    <path fill="#0A6767" d="M4.67175,57.76557 C4.09106398,57.7933061 3.56930715,58.12879 3.30309174,58.6456022 C3.03687632,59.1624144 3.06666432,59.7820049 3.38123081,60.2708949 C3.6957973,60.7597849 4.2473314,61.0436683 4.828,61.01557 L186.76554,61.01557 C187.66278,61.0152552 188.38997,60.2878101 188.38997,59.39057 C188.38997,58.4933299 187.66278,57.7658848 186.76554,57.76557 L4.828,57.76557 C4.77594718,57.7630486 4.72380282,57.7630486 4.67175,57.76557 Z"/>
  </g>
</svg>
