<svg xmlns="http://www.w3.org/2000/svg" width="50" height="25" viewBox="0 0 50 25">
  <g fill="none" transform="translate(-.81 -.5)">
    <g fill="#E62002" transform="translate(1.733 .66)">
      <path d="M11.3701704,0.0625731944 C5.14170281,0.0625731944 0.0675698185,5.13670345 0.0675698185,11.3651673 C0.0675698185,17.5936309 5.14170281,22.6677615 11.3701704,22.6677615 C17.5986395,22.6677615 22.6727716,17.5936309 22.6727716,11.3651673 C22.6727716,5.13670345 17.5986395,0.0625731944 11.3701704,0.0625731944 Z M11.3701704,2.2771794 C16.4034316,2.2771794 20.4581638,6.33191077 20.4581638,11.3651673 C20.4581638,16.3984238 16.4034316,20.4531552 11.3701704,20.4531552 C6.33691075,20.4531552 2.28217735,16.3984238 2.28217735,11.3651673 C2.28217735,6.33191077 6.33691075,2.2771794 11.3701704,2.2771794 Z"/>
      <path d="M17.7455503,9.49407253 L16.2572306,10.2785301 C16.0964014,9.94384226 15.8982605,9.70875198 15.663873,9.57466478 C15.4287874,9.44093444 15.2039045,9.37371279 14.9902792,9.37371279 C13.9848134,9.37371279 13.4815534,10.0371039 13.4815534,11.3645834 C13.4815534,11.967797 13.6093039,12.449938 13.8637509,12.812076 C14.1181923,13.1742141 14.4933504,13.3554588 14.9902792,13.3554588 C15.6466309,13.3554588 16.1094206,13.0334388 16.377239,12.3901118 L17.7849656,13.0939779 C17.4770245,13.6440432 17.0610409,14.0762148 16.5387756,14.3911906 C16.0158037,14.7065226 15.4460295,14.8638364 14.8294445,14.8638364 C13.8102567,14.8638364 12.996239,14.555896 12.3866935,13.9386083 C11.7757416,13.3220241 11.4709692,12.4640168 11.4709692,11.3649395 C11.4709692,10.2922528 11.7824249,9.44128582 12.4064007,8.81097414 C13.0293224,8.18102245 13.81694,7.86569131 14.7689156,7.86569131 C16.1632662,7.86522175 17.1560642,8.40801445 17.7455503,9.49407253 Z M11.2499578,9.49407253 L9.74122726,10.2785301 C9.58004119,9.94384226 9.38260853,9.70875198 9.14822103,9.57466478 C8.91348214,9.44093444 8.69563865,9.37371279 8.4943392,9.37371279 C7.48922084,9.37371279 6.98595616,10.0371039 6.98595616,11.3645834 C6.98595616,11.967797 7.11336001,12.449938 7.36780148,12.812076 C7.6226045,13.1742141 7.99811394,13.3554588 8.4943392,13.3554588 C9.15138896,13.3554588 9.6138281,13.0334388 9.88235389,12.3901118 L11.269665,13.0939779 C10.9747439,13.6440432 10.5658044,14.0762148 10.0428317,14.3911906 C9.52056723,14.7065226 8.94375363,14.8638364 8.31344586,14.8638364 C7.30797612,14.8638364 6.49642364,14.555896 5.87983864,13.9386083 C5.26325835,13.3220241 4.95496585,12.4640168 4.95496585,11.3649395 C4.95496585,10.2922528 5.26677297,9.44128582 5.89004601,8.81097414 C6.51331905,8.18102245 7.30093591,7.86569131 8.25326365,7.86569131 C9.64796639,7.86522175 10.646392,8.40801445 11.2499578,9.49407253 Z"/>
    </g>
    <g fill="#E62002" transform="translate(27.456 .675)">
      <path d="M9.75940299,5.63852675 C9.75940299,4.57620004 10.2838564,4.04433078 11.3338228,4.04433078 C12.3837893,4.04433078 12.9078897,4.57549336 12.9078897,5.63852675 C12.9078897,6.68778572 12.3830826,7.21259207 11.3338228,7.21259207 C10.2845631,7.21259207 9.75940299,6.68778572 9.75940299,5.63852675 Z M14.3813034,8.54438526 L14.3813034,13.1655766 L13.0901236,13.1655766 L13.0901236,18.6544997 L9.57822793,18.6544997 L9.57822793,13.1659295 L8.2870482,13.1659295 L8.2870482,8.54438526 C8.2870482,8.34237365 8.35768195,8.17108743 8.49859572,8.02982071 C8.64021617,7.88890694 8.81185534,7.81792103 9.01316027,7.81792103 L13.6551913,7.81792103 C13.8434293,7.81792103 14.0118903,7.88855399 14.159514,8.02982071 C14.3067848,8.17108743 14.3813034,8.34272738 14.3813034,8.54438526 Z"/>
      <path d="M11.3343816,0.0472255987 C5.10591403,0.0472255987 0.0317808832,5.12135616 0.0317808832,11.3498198 C0.0317808832,17.5782835 5.10591403,22.652414 11.3343816,22.652414 C17.5628507,22.652414 22.6369821,17.5782835 22.6369821,11.3498198 C22.6369821,5.12135616 17.5628507,0.0472255987 11.3343816,0.0472255987 Z M11.3343816,2.26183188 C16.367642,2.26183188 20.422375,6.31656333 20.422375,11.3498198 C20.422375,16.3830763 16.367642,20.4378078 11.3343816,20.4378078 C6.30112198,20.4378078 2.24638842,16.3830763 2.24638842,11.3498198 C2.24638842,6.31656333 6.30112198,2.26183188 11.3343816,2.26183188 Z"/>
    </g>
    <g fill="#0A6767" opacity=".99" transform="translate(.993 1.92)">
      <path d="M11.3701704,0.0625731944 C5.14170281,0.0625731944 0.0675698185,5.13670345 0.0675698185,11.3651673 C0.0675698185,17.5936309 5.14170281,22.6677615 11.3701704,22.6677615 C17.5986395,22.6677615 22.6727716,17.5936309 22.6727716,11.3651673 C22.6727716,5.13670345 17.5986395,0.0625731944 11.3701704,0.0625731944 Z M11.3701704,2.2771794 C16.4034316,2.2771794 20.4581638,6.33191077 20.4581638,11.3651673 C20.4581638,16.3984238 16.4034316,20.4531552 11.3701704,20.4531552 C6.33691075,20.4531552 2.28217735,16.3984238 2.28217735,11.3651673 C2.28217735,6.33191077 6.33691075,2.2771794 11.3701704,2.2771794 Z"/>
      <path d="M17.7455503,9.49407253 L16.2572306,10.2785301 C16.0964014,9.94384226 15.8982605,9.70875198 15.663873,9.57466478 C15.4287874,9.44093444 15.2039045,9.37371279 14.9902792,9.37371279 C13.9848134,9.37371279 13.4815534,10.0371039 13.4815534,11.3645834 C13.4815534,11.967797 13.6093039,12.449938 13.8637509,12.812076 C14.1181923,13.1742141 14.4933504,13.3554588 14.9902792,13.3554588 C15.6466309,13.3554588 16.1094206,13.0334388 16.377239,12.3901118 L17.7849656,13.0939779 C17.4770245,13.6440432 17.0610409,14.0762148 16.5387756,14.3911906 C16.0158037,14.7065226 15.4460295,14.8638364 14.8294445,14.8638364 C13.8102567,14.8638364 12.996239,14.555896 12.3866935,13.9386083 C11.7757416,13.3220241 11.4709692,12.4640168 11.4709692,11.3649395 C11.4709692,10.2922528 11.7824249,9.44128582 12.4064007,8.81097414 C13.0293224,8.18102245 13.81694,7.86569131 14.7689156,7.86569131 C16.1632662,7.86522175 17.1560642,8.40801445 17.7455503,9.49407253 Z M11.2499578,9.49407253 L9.74122726,10.2785301 C9.58004119,9.94384226 9.38260853,9.70875198 9.14822103,9.57466478 C8.91348214,9.44093444 8.69563865,9.37371279 8.4943392,9.37371279 C7.48922084,9.37371279 6.98595616,10.0371039 6.98595616,11.3645834 C6.98595616,11.967797 7.11336001,12.449938 7.36780148,12.812076 C7.6226045,13.1742141 7.99811394,13.3554588 8.4943392,13.3554588 C9.15138896,13.3554588 9.6138281,13.0334388 9.88235389,12.3901118 L11.269665,13.0939779 C10.9747439,13.6440432 10.5658044,14.0762148 10.0428317,14.3911906 C9.52056723,14.7065226 8.94375363,14.8638364 8.31344586,14.8638364 C7.30797612,14.8638364 6.49642364,14.555896 5.87983864,13.9386083 C5.26325835,13.3220241 4.95496585,12.4640168 4.95496585,11.3649395 C4.95496585,10.2922528 5.26677297,9.44128582 5.89004601,8.81097414 C6.51331905,8.18102245 7.30093591,7.86569131 8.25326365,7.86569131 C9.64796639,7.86522175 10.646392,8.40801445 11.2499578,9.49407253 Z"/>
    </g>
    <g fill="#0A6767" opacity=".99" transform="translate(26.716 1.935)">
      <path d="M9.75940299,5.63852675 C9.75940299,4.57620004 10.2838564,4.04433078 11.3338228,4.04433078 C12.3837893,4.04433078 12.9078897,4.57549336 12.9078897,5.63852675 C12.9078897,6.68778572 12.3830826,7.21259207 11.3338228,7.21259207 C10.2845631,7.21259207 9.75940299,6.68778572 9.75940299,5.63852675 Z M14.3813034,8.54438526 L14.3813034,13.1655766 L13.0901236,13.1655766 L13.0901236,18.6544997 L9.57822793,18.6544997 L9.57822793,13.1659295 L8.2870482,13.1659295 L8.2870482,8.54438526 C8.2870482,8.34237365 8.35768195,8.17108743 8.49859572,8.02982071 C8.64021617,7.88890694 8.81185534,7.81792103 9.01316027,7.81792103 L13.6551913,7.81792103 C13.8434293,7.81792103 14.0118903,7.88855399 14.159514,8.02982071 C14.3067848,8.17108743 14.3813034,8.34272738 14.3813034,8.54438526 Z"/>
      <path d="M11.3343816,0.0472255987 C5.10591403,0.0472255987 0.0317808832,5.12135616 0.0317808832,11.3498198 C0.0317808832,17.5782835 5.10591403,22.652414 11.3343816,22.652414 C17.5628507,22.652414 22.6369821,17.5782835 22.6369821,11.3498198 C22.6369821,5.12135616 17.5628507,0.0472255987 11.3343816,0.0472255987 Z M11.3343816,2.26183188 C16.367642,2.26183188 20.422375,6.31656333 20.422375,11.3498198 C20.422375,16.3830763 16.367642,20.4378078 11.3343816,20.4378078 C6.30112198,20.4378078 2.24638842,16.3830763 2.24638842,11.3498198 C2.24638842,6.31656333 6.30112198,2.26183188 11.3343816,2.26183188 Z"/>
    </g>
  </g>
</svg>
